  0
SECTION
  2
HEADER
  9
$ACADVER
  1
AC1024
  9
$ACADMAINTVER
 70
     6
  9
$DWGCODEPAGE
  3
ANSI_1252
  9
$INSBASE
 10
0.0
 20
0.0
 30
0.0
  9
$EXTMIN
 10
1.000000000000000E+20
 20
1.000000000000000E+20
 30
1.000000000000000E+20
  9
$EXTMAX
 10
-1.000000000000000E+20
 20
-1.000000000000000E+20
 30
-1.000000000000000E+20
  9
$LIMMIN
 10
0.0
 20
0.0
  9
$LIMMAX
 10
12.0
 20
9.0
  9
$ORTHOMODE
 70
     0
  9
$REGENMODE
 70
     1
  9
$FILLMODE
 70
     1
  9
$QTEXTMODE
 70
     0
  9
$MIRRTEXT
 70
     1
  9
$LTSCALE
 40
1.0
  9
$ATTMODE
 70
     1
  9
$TEXTSIZE
 40
0.2
  9
$TRACEWID
 40
0.05
  9
$TEXTSTYLE
  7
Standard
  9
$CLAYER
  8
0
  9
$CELTYPE
  6
ByLayer
  9
$CECOLOR
 62
   256
  9
$CELTSCALE
 40
1.0
  9
$DISPSILH
 70
     0
  9
$DIMSCALE
 40
1.0
  9
$DIMASZ
 40
0.18
  9
$DIMEXO
 40
0.0625
  9
$DIMDLI
 40
0.38
  9
$DIMRND
 40
0.0
  9
$DIMDLE
 40
0.0
  9
$DIMEXE
 40
0.18
  9
$DIMTP
 40
0.0
  9
$DIMTM
 40
0.0
  9
$DIMTXT
 40
0.18
  9
$DIMCEN
 40
0.09
  9
$DIMTSZ
 40
0.0
  9
$DIMTOL
 70
     0
  9
$DIMLIM
 70
     0
  9
$DIMTIH
 70
     1
  9
$DIMTOH
 70
     1
  9
$DIMSE1
 70
     0
  9
$DIMSE2
 70
     0
  9
$DIMTAD
 70
     0
  9
$DIMZIN
 70
     0
  9
$DIMBLK
  1

  9
$DIMASO
 70
     1
  9
$DIMSHO
 70
     1
  9
$DIMPOST
  1

  9
$DIMAPOST
  1

  9
$DIMALT
 70
     0
  9
$DIMALTD
 70
     2
  9
$DIMALTF
 40
25.4
  9
$DIMLFAC
 40
1.0
  9
$DIMTOFL
 70
     0
  9
$DIMTVP
 40
0.0
  9
$DIMTIX
 70
     0
  9
$DIMSOXD
 70
     0
  9
$DIMSAH
 70
     0
  9
$DIMBLK1
  1

  9
$DIMBLK2
  1

  9
$DIMSTYLE
  2
Standard
  9
$DIMCLRD
 70
     0
  9
$DIMCLRE
 70
     0
  9
$DIMCLRT
 70
     0
  9
$DIMTFAC
 40
1.0
  9
$DIMGAP
 40
0.09
  9
$DIMJUST
 70
     0
  9
$DIMSD1
 70
     0
  9
$DIMSD2
 70
     0
  9
$DIMTOLJ
 70
     1
  9
$DIMTZIN
 70
     0
  9
$DIMALTZ
 70
     0
  9
$DIMALTTZ
 70
     0
  9
$DIMUPT
 70
     0
  9
$DIMDEC
 70
     4
  9
$DIMTDEC
 70
     4
  9
$DIMALTU
 70
     2
  9
$DIMALTTD
 70
     2
  9
$DIMTXSTY
  7
Standard
  9
$DIMAUNIT
 70
     0
  9
$DIMADEC
 70
     0
  9
$DIMALTRND
 40
0.0
  9
$DIMAZIN
 70
     0
  9
$DIMDSEP
 70
    46
  9
$DIMATFIT
 70
     3
  9
$DIMFRAC
 70
     0
  9
$DIMLDRBLK
  1

  9
$DIMLUNIT
 70
     2
  9
$DIMLWD
 70
    -2
  9
$DIMLWE
 70
    -2
  9
$DIMTMOVE
 70
     0
  9
$DIMFXL
 40
1.0
  9
$DIMFXLON
 70
     0
  9
$DIMJOGANG
 40
0.7853981633974483
  9
$DIMTFILL
 70
     0
  9
$DIMTFILLCLR
 70
     0
  9
$DIMARCSYM
 70
     0
  9
$DIMLTYPE
  6

  9
$DIMLTEX1
  6

  9
$DIMLTEX2
  6

  9
$DIMTXTDIRECTION
 70
     0
  9
$LUNITS
 70
     2
  9
$LUPREC
 70
     4
  9
$SKETCHINC
 40
0.1
  9
$FILLETRAD
 40
0.5
  9
$AUNITS
 70
     0
  9
$AUPREC
 70
     0
  9
$MENU
  1
.
  9
$ELEVATION
 40
0.0
  9
$PELEVATION
 40
0.0
  9
$THICKNESS
 40
0.0
  9
$LIMCHECK
 70
     0
  9
$CHAMFERA
 40
0.5
  9
$CHAMFERB
 40
0.5
  9
$CHAMFERC
 40
1.0
  9
$CHAMFERD
 40
0.0
  9
$SKPOLY
 70
     0
  9
$TDCREATE
 40
2458257.224200475
  9
$TDUCREATE
 40
2458256.807533808
  9
$TDUPDATE
 40
2458257.224200475
  9
$TDUUPDATE
 40
2458256.807533808
  9
$TDINDWG
 40
0.0000000116
  9
$TDUSRTIMER
 40
0.0000000116
  9
$USRTIMER
 70
     1
  9
$ANGBASE
 50
0.0
  9
$ANGDIR
 70
     0
  9
$PDMODE
 70
     0
  9
$PDSIZE
 40
0.0
  9
$PLINEWID
 40
0.0
  9
$SPLFRAME
 70
     0
  9
$SPLINETYPE
 70
     6
  9
$SPLINESEGS
 70
     8
  9
$HANDSEED
  5
44
  9
$SURFTAB1
 70
     6
  9
$SURFTAB2
 70
     6
  9
$SURFTYPE
 70
     6
  9
$SURFU
 70
     6
  9
$SURFV
 70
     6
  9
$UCSBASE
  2

  9
$UCSNAME
  2

  9
$UCSORG
 10
0.0
 20
0.0
 30
0.0
  9
$UCSXDIR
 10
1.0
 20
0.0
 30
0.0
  9
$UCSYDIR
 10
0.0
 20
1.0
 30
0.0
  9
$UCSORTHOREF
  2

  9
$UCSORTHOVIEW
 70
     0
  9
$UCSORGTOP
 10
0.0
 20
0.0
 30
0.0
  9
$UCSORGBOTTOM
 10
0.0
 20
0.0
 30
0.0
  9
$UCSORGLEFT
 10
0.0
 20
0.0
 30
0.0
  9
$UCSORGRIGHT
 10
0.0
 20
0.0
 30
0.0
  9
$UCSORGFRONT
 10
0.0
 20
0.0
 30
0.0
  9
$UCSORGBACK
 10
0.0
 20
0.0
 30
0.0
  9
$PUCSBASE
  2

  9
$PUCSNAME
  2

  9
$PUCSORG
 10
0.0
 20
0.0
 30
0.0
  9
$PUCSXDIR
 10
1.0
 20
0.0
 30
0.0
  9
$PUCSYDIR
 10
0.0
 20
1.0
 30
0.0
  9
$PUCSORTHOREF
  2

  9
$PUCSORTHOVIEW
 70
     0
  9
$PUCSORGTOP
 10
0.0
 20
0.0
 30
0.0
  9
$PUCSORGBOTTOM
 10
0.0
 20
0.0
 30
0.0
  9
$PUCSORGLEFT
 10
0.0
 20
0.0
 30
0.0
  9
$PUCSORGRIGHT
 10
0.0
 20
0.0
 30
0.0
  9
$PUCSORGFRONT
 10
0.0
 20
0.0
 30
0.0
  9
$PUCSORGBACK
 10
0.0
 20
0.0
 30
0.0
  9
$USERI1
 70
     0
  9
$USERI2
 70
     0
  9
$USERI3
 70
     0
  9
$USERI4
 70
     0
  9
$USERI5
 70
     0
  9
$USERR1
 40
0.0
  9
$USERR2
 40
0.0
  9
$USERR3
 40
0.0
  9
$USERR4
 40
0.0
  9
$USERR5
 40
0.0
  9
$WORLDVIEW
 70
     1
  9
$SHADEDGE
 70
     3
  9
$SHADEDIF
 70
    70
  9
$TILEMODE
 70
     1
  9
$MAXACTVP
 70
    64
  9
$PINSBASE
 10
0.0
 20
0.0
 30
0.0
  9
$PLIMCHECK
 70
     0
  9
$PEXTMIN
 10
1.000000000000000E+20
 20
1.000000000000000E+20
 30
1.000000000000000E+20
  9
$PEXTMAX
 10
-1.000000000000000E+20
 20
-1.000000000000000E+20
 30
-1.000000000000000E+20
  9
$PLIMMIN
 10
0.0
 20
0.0
  9
$PLIMMAX
 10
12.0
 20
9.0
  9
$UNITMODE
 70
     0
  9
$VISRETAIN
 70
     1
  9
$PLINEGEN
 70
     0
  9
$PSLTSCALE
 70
     1
  9
$TREEDEPTH
 70
  3020
  9
$CMLSTYLE
  2
Standard
  9
$CMLJUST
 70
     0
  9
$CMLSCALE
 40
1.0
  9
$PROXYGRAPHICS
 70
     1
  9
$MEASUREMENT
 70
     0
  9
$CELWEIGHT
370
    -1
  9
$ENDCAPS
280
     0
  9
$JOINSTYLE
280
     0
  9
$LWDISPLAY
290
     1
  9
$INSUNITS
 70
     1
  9
$HYPERLINKBASE
  1

  9
$STYLESHEET
  1

  9
$XEDIT
290
     1
  9
$CEPSNTYPE
380
     0
  9
$PSTYLEMODE
290
     1
  9
$FINGERPRINTGUID
  2
{4E638A5D-306C-4677-B9C5-574FFEB73459}
  9
$VERSIONGUID
  2
{FAEB1C32-E019-11D5-929B-00C0DF256EC4}
  9
$EXTNAMES
290
     1
  9
$PSVPSCALE
 40
0.0
  9
$OLESTARTUP
290
     0
  9
$SORTENTS
280
   127
  9
$INDEXCTL
280
     0
  9
$HIDETEXT
280
     1
  9
$XCLIPFRAME
280
     2
  9
$HALOGAP
280
     0
  9
$OBSCOLOR
 70
   257
  9
$OBSLTYPE
280
     0
  9
$INTERSECTIONDISPLAY
280
     0
  9
$INTERSECTIONCOLOR
 70
   257
  9
$DIMASSOC
280
     2
  9
$PROJECTNAME
  1

  9
$CAMERADISPLAY
290
     0
  9
$LENSLENGTH
 40
50.0
  9
$CAMERAHEIGHT
 40
0.0
  9
$STEPSPERSEC
 40
2.0
  9
$STEPSIZE
 40
6.0
  9
$3DDWFPREC
 40
2.0
  9
$PSOLWIDTH
 40
0.25
  9
$PSOLHEIGHT
 40
4.0
  9
$LOFTANG1
 40
1.570796326794897
  9
$LOFTANG2
 40
1.570796326794897
  9
$LOFTMAG1
 40
0.0
  9
$LOFTMAG2
 40
0.0
  9
$LOFTPARAM
 70
     7
  9
$LOFTNORMALS
280
     1
  9
$LATITUDE
 40
37.795
  9
$LONGITUDE
 40
-122.394
  9
$NORTHDIRECTION
 40
0.0
  9
$TIMEZONE
 70
 -8000
  9
$LIGHTGLYPHDISPLAY
280
     1
  9
$TILEMODELIGHTSYNCH
280
     1
  9
$CMATERIAL
347
3C
  9
$SOLIDHIST
280
     1
  9
$SHOWHIST
280
     1
  9
$DWFFRAME
280
     2
  9
$DGNFRAME
280
     2
  9
$REALWORLDSCALE
290
     1
  9
$INTERFERECOLOR
 62
   256
  9
$CSHADOW
280
     0
  9
$SHADOWPLANELOCATION
 40
0.0
  0
ENDSEC
  0
SECTION
  2
CLASSES
  0
CLASS
  1
ACDBDICTIONARYWDFLT
  2
AcDbDictionaryWithDefault
  3
ObjectDBX Classes
 90
        0
 91
        4
280
     0
281
     0
  0
CLASS
  1
VISUALSTYLE
  2
AcDbVisualStyle
  3
ObjectDBX Classes
 90
     4095
 91
        4
280
     0
281
     0
  0
CLASS
  1
MATERIAL
  2
AcDbMaterial
  3
ObjectDBX Classes
 90
     1153
 91
        4
280
     0
281
     0
  0
CLASS
  1
SUN
  2
AcDbSun
  3
SCENEOE
 90
     1024
 91
        4
280
     0
281
     0
  0
ENDSEC
  0
SECTION
  2
TABLES
  0
TABLE
  2
VPORT
  5
8
330
0
100
AcDbSymbolTable
 70
     1
  0
VPORT
  5
29
330
8
100
AcDbSymbolTableRecord
100
AcDbViewportTableRecord
  2
*Active
 70
     0
 10
0.0
 20
0.0
 11
1.0
 21
1.0
 12
0.0
 22
0.0
 13
0.0
 23
0.0
 14
0.5
 24
0.5
 15
0.5
 25
0.5
 16
0.0
 26
0.0
 36
1.0
 17
6.0
 27
-6.0
 37
0.0
 40
12.0
 41
1.0
 42
50.0
 43
0.0
 44
0.0
 50
0.0
 51
0.0
 71
     0
 72
   100
 73
     1
 74
     3
 75
     0
 76
     0
 77
     0
 78
     0
281
     0
 65
     1
110
0.0
120
0.0
130
0.0
111
1.0
121
0.0
131
0.0
112
0.0
122
1.0
132
0.0
 79
     0
146
0.0
 60
     3
 61
     5
292
     1
282
     1
141
0.0
142
0.0
 63
   250
361
3F
  0
ENDTAB
  0
TABLE
  2
LTYPE
  5
5
330
0
100
AcDbSymbolTable
 70
     1
  0
LTYPE
  5
14
330
5
100
AcDbSymbolTableRecord
100
AcDbLinetypeTableRecord
  2
ByBlock
 70
     0
  3

 72
    65
 73
     0
 40
0.0
  0
LTYPE
  5
15
330
5
100
AcDbSymbolTableRecord
100
AcDbLinetypeTableRecord
  2
ByLayer
 70
     0
  3

 72
    65
 73
     0
 40
0.0
  0
LTYPE
  5
16
330
5
100
AcDbSymbolTableRecord
100
AcDbLinetypeTableRecord
  2
Continuous
 70
     0
  3
Solid line
 72
    65
 73
     0
 40
0.0
  0
ENDTAB
  0
TABLE
  2
LAYER
  5
2
330
0
100
AcDbSymbolTable
 70
     2
  0
LAYER
  5
10
330
2
100
AcDbSymbolTableRecord
100
AcDbLayerTableRecord
  2
0
 70
     0
 62
     7
  6
Continuous
370
    -3
390
F
347
3E
  0
LAYER
  5
40
330
2
100
AcDbSymbolTableRecord
100
AcDbLayerTableRecord
  2
Layer 1
 70
     0
 62
     7
  6
Continuous
370
    -3
390
F
347
3E
  0
ENDTAB
  0
TABLE
  2
STYLE
  5
3
330
0
100
AcDbSymbolTable
 70
     1
  0
STYLE
  5
11
330
3
100
AcDbSymbolTableRecord
100
AcDbTextStyleTableRecord
  2
Standard
 70
     0
 40
0.0
 41
1.0
 50
0.0
 71
     0
 42
0.2
  3
txt
  4

  0
ENDTAB
  0
TABLE
  2
VIEW
  5
6
330
0
100
AcDbSymbolTable
 70
     0
  0
ENDTAB
  0
TABLE
  2
UCS
  5
7
330
0
100
AcDbSymbolTable
 70
     0
  0
ENDTAB
  0
TABLE
  2
APPID
  5
9
330
0
100
AcDbSymbolTable
 70
     1
  0
APPID
  5
12
330
9
100
AcDbSymbolTableRecord
100
AcDbRegAppTableRecord
  2
ACAD
 70
     0
  0
ENDTAB
  0
TABLE
  2
DIMSTYLE
  5
A
330
0
100
AcDbSymbolTable
 70
     1
100
AcDbDimStyleTable
  0
DIMSTYLE
105
27
330
A
100
AcDbSymbolTableRecord
100
AcDbDimStyleTableRecord
  2
Standard
 70
     0
178
     0
340
11
  0
ENDTAB
  0
TABLE
  2
BLOCK_RECORD
  5
1
330
0
100
AcDbSymbolTable
 70
     1
  0
BLOCK_RECORD
  5
1F
330
1
100
AcDbSymbolTableRecord
100
AcDbBlockTableRecord
  2
*Model_Space
340
22
 70
     0
280
     1
281
     0
  0
BLOCK_RECORD
  5
1B
330
1
100
AcDbSymbolTableRecord
100
AcDbBlockTableRecord
  2
*Paper_Space
340
1E
 70
     0
280
     1
281
     0
  0
BLOCK_RECORD
  5
23
330
1
100
AcDbSymbolTableRecord
100
AcDbBlockTableRecord
  2
*Paper_Space0
340
26
 70
     0
280
     1
281
     0
  0
ENDTAB
  0
ENDSEC
  0
SECTION
  2
BLOCKS
  0
BLOCK
  5
20
330
1F
100
AcDbEntity
  8
0
100
AcDbBlockBegin
  2
*Model_Space
 70
     0
 10
0.0
 20
0.0
 30
0.0
  3
*Model_Space
  1

  0
ENDBLK
  5
21
330
1F
100
AcDbEntity
  8
0
100
AcDbBlockEnd
  0
BLOCK
  5
1C
330
1B
100
AcDbEntity
 67
     1
  8
0
100
AcDbBlockBegin
  2
*Paper_Space
 70
     0
 10
0.0
 20
0.0
 30
0.0
  3
*Paper_Space
  1

  0
ENDBLK
  5
1D
330
1B
100
AcDbEntity
 67
     1
  8
0
100
AcDbBlockEnd
  0
BLOCK
  5
24
330
23
100
AcDbEntity
  8
0
100
AcDbBlockBegin
  2
*Paper_Space0
 70
     0
 10
0.0
 20
0.0
 30
0.0
  3
*Paper_Space0
  1

  0
ENDBLK
  5
25
330
23
100
AcDbEntity
  8
0
100
AcDbBlockEnd
  0
ENDSEC
  0
SECTION
  2
ENTITIES
  0
SPLINE
  5
41
330
1F
100
AcDbEntity
  8
Layer 1
370
     0
100
AcDbSpline
210
0.0
220
0.0
230
1.0
 70
    11
 71
     3
 72
   488
 73
   484
 74
     0
 42
0.0000000001
 43
0.0000000001
 12
1.0
 22
0.0
 32
0.0
 13
1.0
 23
0.0
 33
0.0
 40
0.0
 40
0.0
 40
0.0
 40
0.0
 40
1.0
 40
1.0
 40
1.0
 40
2.0
 40
2.0
 40
2.0
 40
3.0
 40
3.0
 40
3.0
 40
4.0
 40
4.0
 40
4.0
 40
5.0
 40
5.0
 40
5.0
 40
6.0
 40
6.0
 40
6.0
 40
7.0
 40
7.0
 40
7.0
 40
8.0
 40
8.0
 40
8.0
 40
9.0
 40
9.0
 40
9.0
 40
10.0
 40
10.0
 40
10.0
 40
11.0
 40
11.0
 40
11.0
 40
12.0
 40
12.0
 40
12.0
 40
13.0
 40
13.0
 40
13.0
 40
14.0
 40
14.0
 40
14.0
 40
15.0
 40
15.0
 40
15.0
 40
16.0
 40
16.0
 40
16.0
 40
17.0
 40
17.0
 40
17.0
 40
18.0
 40
18.0
 40
18.0
 40
19.0
 40
19.0
 40
19.0
 40
20.0
 40
20.0
 40
20.0
 40
21.0
 40
21.0
 40
21.0
 40
22.0
 40
22.0
 40
22.0
 40
23.0
 40
23.0
 40
23.0
 40
24.0
 40
24.0
 40
24.0
 40
25.0
 40
25.0
 40
25.0
 40
26.0
 40
26.0
 40
26.0
 40
27.0
 40
27.0
 40
27.0
 40
28.0
 40
28.0
 40
28.0
 40
29.0
 40
29.0
 40
29.0
 40
30.0
 40
30.0
 40
30.0
 40
31.0
 40
31.0
 40
31.0
 40
32.0
 40
32.0
 40
32.0
 40
33.0
 40
33.0
 40
33.0
 40
34.0
 40
34.0
 40
34.0
 40
35.0
 40
35.0
 40
35.0
 40
36.0
 40
36.0
 40
36.0
 40
37.0
 40
37.0
 40
37.0
 40
38.0
 40
38.0
 40
38.0
 40
39.0
 40
39.0
 40
39.0
 40
40.0
 40
40.0
 40
40.0
 40
41.0
 40
41.0
 40
41.0
 40
42.0
 40
42.0
 40
42.0
 40
43.0
 40
43.0
 40
43.0
 40
44.0
 40
44.0
 40
44.0
 40
45.0
 40
45.0
 40
45.0
 40
46.0
 40
46.0
 40
46.0
 40
47.0
 40
47.0
 40
47.0
 40
48.0
 40
48.0
 40
48.0
 40
49.0
 40
49.0
 40
49.0
 40
50.0
 40
50.0
 40
50.0
 40
51.0
 40
51.0
 40
51.0
 40
52.0
 40
52.0
 40
52.0
 40
53.0
 40
53.0
 40
53.0
 40
54.0
 40
54.0
 40
54.0
 40
55.0
 40
55.0
 40
55.0
 40
56.0
 40
56.0
 40
56.0
 40
57.0
 40
57.0
 40
57.0
 40
58.0
 40
58.0
 40
58.0
 40
59.0
 40
59.0
 40
59.0
 40
60.0
 40
60.0
 40
60.0
 40
61.0
 40
61.0
 40
61.0
 40
62.0
 40
62.0
 40
62.0
 40
63.0
 40
63.0
 40
63.0
 40
64.0
 40
64.0
 40
64.0
 40
65.0
 40
65.0
 40
65.0
 40
66.0
 40
66.0
 40
66.0
 40
67.0
 40
67.0
 40
67.0
 40
68.0
 40
68.0
 40
68.0
 40
69.0
 40
69.0
 40
69.0
 40
70.0
 40
70.0
 40
70.0
 40
71.0
 40
71.0
 40
71.0
 40
72.0
 40
72.0
 40
72.0
 40
73.0
 40
73.0
 40
73.0
 40
74.0
 40
74.0
 40
74.0
 40
75.0
 40
75.0
 40
75.0
 40
76.0
 40
76.0
 40
76.0
 40
77.0
 40
77.0
 40
77.0
 40
78.0
 40
78.0
 40
78.0
 40
79.0
 40
79.0
 40
79.0
 40
80.0
 40
80.0
 40
80.0
 40
81.0
 40
81.0
 40
81.0
 40
82.0
 40
82.0
 40
82.0
 40
83.0
 40
83.0
 40
83.0
 40
84.0
 40
84.0
 40
84.0
 40
85.0
 40
85.0
 40
85.0
 40
86.0
 40
86.0
 40
86.0
 40
87.0
 40
87.0
 40
87.0
 40
88.0
 40
88.0
 40
88.0
 40
89.0
 40
89.0
 40
89.0
 40
90.0
 40
90.0
 40
90.0
 40
91.0
 40
91.0
 40
91.0
 40
92.0
 40
92.0
 40
92.0
 40
93.0
 40
93.0
 40
93.0
 40
94.0
 40
94.0
 40
94.0
 40
95.0
 40
95.0
 40
95.0
 40
96.0
 40
96.0
 40
96.0
 40
97.0
 40
97.0
 40
97.0
 40
98.0
 40
98.0
 40
98.0
 40
99.0
 40
99.0
 40
99.0
 40
100.0
 40
100.0
 40
100.0
 40
101.0
 40
101.0
 40
101.0
 40
102.0
 40
102.0
 40
102.0
 40
103.0
 40
103.0
 40
103.0
 40
104.0
 40
104.0
 40
104.0
 40
105.0
 40
105.0
 40
105.0
 40
106.0
 40
106.0
 40
106.0
 40
107.0
 40
107.0
 40
107.0
 40
108.0
 40
108.0
 40
108.0
 40
109.0
 40
109.0
 40
109.0
 40
110.0
 40
110.0
 40
110.0
 40
111.0
 40
111.0
 40
111.0
 40
112.0
 40
112.0
 40
112.0
 40
113.0
 40
113.0
 40
113.0
 40
114.0
 40
114.0
 40
114.0
 40
115.0
 40
115.0
 40
115.0
 40
116.0
 40
116.0
 40
116.0
 40
117.0
 40
117.0
 40
117.0
 40
118.0
 40
118.0
 40
118.0
 40
119.0
 40
119.0
 40
119.0
 40
120.0
 40
120.0
 40
120.0
 40
121.0
 40
121.0
 40
121.0
 40
122.0
 40
122.0
 40
122.0
 40
123.0
 40
123.0
 40
123.0
 40
124.0
 40
124.0
 40
124.0
 40
125.0
 40
125.0
 40
125.0
 40
126.0
 40
126.0
 40
126.0
 40
127.0
 40
127.0
 40
127.0
 40
128.0
 40
128.0
 40
128.0
 40
129.0
 40
129.0
 40
129.0
 40
130.0
 40
130.0
 40
130.0
 40
131.0
 40
131.0
 40
131.0
 40
132.0
 40
132.0
 40
132.0
 40
133.0
 40
133.0
 40
133.0
 40
134.0
 40
134.0
 40
134.0
 40
135.0
 40
135.0
 40
135.0
 40
136.0
 40
136.0
 40
136.0
 40
137.0
 40
137.0
 40
137.0
 40
138.0
 40
138.0
 40
138.0
 40
139.0
 40
139.0
 40
139.0
 40
140.0
 40
140.0
 40
140.0
 40
141.0
 40
141.0
 40
141.0
 40
142.0
 40
142.0
 40
142.0
 40
143.0
 40
143.0
 40
143.0
 40
144.0
 40
144.0
 40
144.0
 40
145.0
 40
145.0
 40
145.0
 40
146.0
 40
146.0
 40
146.0
 40
147.0
 40
147.0
 40
147.0
 40
148.0
 40
148.0
 40
148.0
 40
149.0
 40
149.0
 40
149.0
 40
150.0
 40
150.0
 40
150.0
 40
151.0
 40
151.0
 40
151.0
 40
152.0
 40
152.0
 40
152.0
 40
153.0
 40
153.0
 40
153.0
 40
154.0
 40
154.0
 40
154.0
 40
155.0
 40
155.0
 40
155.0
 40
156.0
 40
156.0
 40
156.0
 40
157.0
 40
157.0
 40
157.0
 40
158.0
 40
158.0
 40
158.0
 40
159.0
 40
159.0
 40
159.0
 40
160.0
 40
160.0
 40
160.0
 40
161.0
 40
161.0
 40
161.0
 40
161.0
 10
0.5459208112451076
 20
-7.377432690522406
 30
0.0
 10
1.049011576063006
 20
-7.201331933989422
 30
0.0
 10
1.225587666926218
 20
-7.979063858207988
 30
0.0
 10
1.631611402001946
 20
-8.120076446339478
 30
0.0
 10
2.209827044550656
 20
-8.320899489097933
 30
0.0
 10
2.372047548294303
 20
-7.607852238341239
 30
0.0
 10
2.523632650285726
 20
-7.221795812564121
 30
0.0
 10
2.719437730494418
 20
-6.723057378884227
 30
0.0
 10
2.857025787876751
 20
-6.198628022374249
 30
0.0
 10
3.067905173865559
 20
-5.707259721184768
 30
0.0
 10
3.165761977331145
 20
-5.479323019503769
 30
0.0
 10
3.24480713832712
 20
-5.278434638720847
 30
0.0
 10
3.402004779147445
 20
-5.082640992700854
 30
0.0
 10
3.555431597526813
 20
-4.891514117186881
 30
0.0
 10
3.631013841661178
 20
-4.698152680222885
 30
0.0
 10
3.842643798529568
 20
-4.551431179652089
 30
0.0
 10
4.07863913245602
 20
-4.387798557259304
 30
0.0
 10
4.241455029193932
 20
-4.18109345622391
 30
0.0
 10
4.399174557722555
 20
-3.937057458043303
 30
0.0
 10
4.473534980243913
 20
-3.822008579136056
 30
0.0
 10
4.563205742264699
 20
-3.728339944945168
 30
0.0
 10
4.648243219532737
 20
-3.621892820845915
 30
0.0
 10
4.695064469021986
 20
-3.563284586422267
 30
0.0
 10
4.67810842728655
 20
-3.568864456231899
 30
0.0
 10
4.73591300365029
 20
-3.52478577156387
 30
0.0
 10
4.781879141356967
 20
-3.489687802415927
 30
0.0
 10
4.844067084413546
 20
-3.532378053441941
 30
0.0
 10
4.874031115973012
 20
-3.502923658706221
 30
0.0
 10
4.999395240162218
 20
-3.379643818450417
 30
0.0
 10
5.076148668909354
 20
-3.298626264962182
 30
0.0
 10
5.233391229636847
 20
-3.210929528908789
 30
0.0
 10
5.348836220502512
 20
-3.146532342904948
 30
0.0
 10
5.47287398219329
 20
-3.079755218285022
 30
0.0
 10
5.602628823605995
 20
-3.051359300028442
 30
0.0
 10
5.84858086022939
 20
-2.997548512227695
 30
0.0
 10
6.086770736038412
 20
-2.957533854525713
 30
0.0
 10
6.282386335875899
 20
-2.785355014669575
 30
0.0
 10
6.396244428757073
 20
-2.685154208532645
 30
0.0
 10
6.506593868131631
 20
-2.752622283083926
 30
0.0
 10
6.604097846101366
 20
-2.62109514696235
 30
0.0
 10
6.65070348001268
 20
-2.558254640091768
 30
0.0
 10
6.732585945997571
 20
-2.48150692843165
 30
0.0
 10
6.762908520130066
 20
-2.411177047122035
 30
0.0
 10
6.804032291313383
 20
-2.315811256976872
 30
0.0
 10
6.871030748600838
 20
-2.223304006694535
 30
0.0
 10
6.920863265654638
 20
-2.132172122448032
 30
0.0
 10
6.953649901147678
 20
-2.072230991722411
 30
0.0
 10
7.01196411433183
 20
-2.042134650607434
 30
0.0
 10
7.049533495376535
 20
-1.987224550038996
 30
0.0
 10
7.090226035401858
 20
-1.927740785691614
 30
0.0
 10
7.082248259013012
 20
-1.863867937565689
 30
0.0
 10
7.102575744336768
 20
-1.798449844463979
 30
0.0
 10
7.141549893545263
 20
-1.673067752317353
 30
0.0
 10
7.218831743806074
 20
-1.547316500167199
 30
0.0
 10
7.263501737870658
 20
-1.422377073336507
 30
0.0
 10
7.302131228843715
 20
-1.314361835939407
 30
0.0
 10
7.380438069826545
 20
-1.182468806714572
 30
0.0
 10
7.441372338978655
 20
-1.08431798201909
 30
0.0
 10
7.561594358322256
 20
-0.8906576234602551
 30
0.0
 10
7.812132309613288
 20
-0.7556692039357181
 30
0.0
 10
8.03362912935505
 20
-0.7054618098110773
 30
0.0
 10
8.126722788675782
 20
-0.684372319439957
 30
0.0
 10
8.217628439914481
 20
-0.6453115973195054
 30
0.0
 10
8.315079330709143
 20
-0.6517800646684766
 30
0.0
 10
8.36206392533058
 20
-0.6548787218809795
 30
0.0
 10
8.35402734469244
 20
-0.6061218325446209
 30
0.0
 10
8.377843065371557
 20
-0.5817507384087877
 30
0.0
 10
8.445886931521828
 20
-0.5121020063138783
 30
0.0
 10
8.630851611821855
 20
-0.6065416295539686
 30
0.0
 10
8.691870820437947
 20
-0.646592223198973
 30
0.0
 10
8.875940369397187
 20
-0.7674039184794184
 30
0.0
 10
9.143402510117868
 20
-0.7264238910311304
 30
0.0
 10
9.340168059694077
 20
-0.8103424541286586
 30
0.0
 10
9.421390611328736
 20
-0.8449601885857242
 30
0.0
 10
9.520154797011147
 20
-0.7919955285773943
 30
0.0
 10
9.603082671856555
 20
-0.7875672419722579
 30
0.0
 10
9.65698574966973
 20
-0.7846907341478678
 30
0.0
 10
9.718488459885494
 20
-0.8195420521469334
 30
0.0
 10
9.769615487130421
 20
-0.8072715656106134
 30
0.0
 10
9.833725185702507
 20
-0.7919040553159044
 30
0.0
 10
9.862428192821046
 20
-0.7390210678719945
 30
0.0
 10
9.936809033478994
 20
-0.7429397176630977
 30
0.0
 10
10.01963890124302
 20
-0.7473320683461805
 30
0.0
 10
10.03980140797729
 20
-0.7514728675183985
 30
0.0
 10
10.12054699182029
 20
-0.7315463945075685
 30
0.0
 10
10.18150086238484
 20
-0.716479439261055
 30
0.0
 10
10.24187322426767
 20
-0.7288152638564295
 30
0.0
 10
10.29281648823346
 20
-0.765468278693662
 30
0.0
 10
10.34138226375997
 20
-0.80043883864073
 30
0.0
 10
10.41852690410428
 20
-0.7422487677638906
 30
0.0
 10
10.47873510412592
 20
-0.7660301859662265
 30
0.0
 10
10.5836753693573
 20
-0.8074937150306848
 30
0.0
 10
10.68130348962283
 20
-0.8271490351256084
 30
0.0
 10
10.78715113707881
 20
-0.86981478438343
 30
0.0
 10
11.06934537551511
 20
-0.9835944716079439
 30
0.0
 10
11.1455826336224
 20
-1.2000839462383
 30
0.0
 10
11.36816978212952
 20
-1.382365682711035
 30
0.0
 10
11.4564610944781
 20
-1.454667139804807
 30
0.0
 10
11.55133929939327
 20
-1.545854561403909
 30
0.0
 10
11.44279319030074
 20
-1.657280445215949
 30
0.0
 10
11.37037085780748
 20
-1.731610648878965
 30
0.0
 10
11.44919631958255
 20
-1.853856514439637
 30
0.0
 10
11.35869576427626
 20
-1.946126914275106
 30
0.0
 10
11.31380852118552
 20
-1.991902754895856
 30
0.0
 10
11.29024190182852
 20
-2.211582360007747
 30
0.0
 10
11.24230173816704
 20
-2.216770201492143
 30
0.0
 10
11.16008768156136
 20
-2.225670877892892
 30
0.0
 10
11.17171785517995
 20
-2.023526373018929
 30
0.0
 10
11.10909214715937
 20
-2.031525384275445
 30
0.0
 10
11.05067175963839
 20
-2.038972288975805
 30
0.0
 10
11.11254853020649
 20
-2.228374239874294
 30
0.0
 10
11.03767602069148
 20
-2.23995377648877
 30
0.0
 10
10.97620679622643
 20
-2.249480064757184
 30
0.0
 10
10.98476036422572
 20
-2.098678202705615
 30
0.0
 10
10.94283293498261
 20
-2.100483166445201
 30
0.0
 10
10.90913075001064
 20
-2.101933671242149
 30
0.0
 10
10.8981090370182
 20
-2.340154582624538
 30
0.0
 10
10.82087864048496
 20
-2.242162202703803
 30
0.0
 10
10.80772609021824
 20
-2.225487931325839
 30
0.0
 10
10.76543930168613
 20
-2.050107526813753
 30
0.0
 10
10.73933674911682
 20
-2.089231953539651
 30
0.0
 10
10.71557411560611
 20
-2.124839559509648
 30
0.0
 10
10.7029891896766
 20
-2.259411448950863
 30
0.0
 10
10.63682787621044
 20
-2.249597673239186
 30
0.0
 10
10.56400208123776
 20
-2.238789125655103
 30
0.0
 10
10.61428624759184
 20
-2.100233248373848
 30
0.0
 10
10.56347856008675
 20
-2.091765436574961
 30
0.0
 10
10.52821642907629
 20
-2.085911146936193
 30
0.0
 10
10.5024805863282
 20
-2.276423844748504
 30
0.0
 10
10.44091907186579
 20
-2.198124354299959
 30
0.0
 10
10.42149325169099
 20
-2.173398801219188
 30
0.0
 10
10.42145404886343
 20
-2.066050011971015
 30
0.0
 10
10.3892366711688
 20
-2.059423099843912
 30
0.0
 10
10.3074464951894
 20
-2.042657355187278
 30
0.0
 10
10.25575021013517
 20
-2.366747170568209
 30
0.0
 10
10.2055052466323
 20
-2.083207784938092
 30
0.0
 10
10.1904905618301
 20
-1.998279748914544
 30
0.0
 10
10.12206283460892
 20
-2.153028029424212
 30
0.0
 10
10.09494672547822
 20
-2.168145621663977
 30
0.0
 10
9.993234976835083
 20
-2.224859052519567
 30
0.0
 10
10.08582471642573
 20
-1.951290253934252
 30
0.0
 10
9.967191228521541
 20
-2.103970585032824
 30
0.0
 10
9.886871158751495
 20
-2.207310884665528
 30
0.0
 10
9.89926660432775
 20
-1.998332019344641
 30
0.0
 10
9.865276931918086
 20
-2.003951091985944
 30
0.0
 10
9.756900701770114
 20
-2.021829217003149
 30
0.0
 10
9.927994929927914
 20
-2.26478060350237
 30
0.0
 10
9.956175232611132
 20
-2.289321576580884
 30
0.0
 10
10.03435956473388
 20
-2.35741852990039
 30
0.0
 10
10.10600274093207
 20
-2.309275818275005
 30
0.0
 10
10.1965670008348
 20
-2.354138559597534
 30
0.0
 10
10.22283289853676
 20
-2.367166967563687
 30
0.0
 10
10.27181112052707
 20
-2.447859464238995
 30
0.0
 10
10.29269234585541
 20
-2.44775328990214
 30
0.0
 10
10.3253491219635
 20
-2.447609546184822
 30
0.0
 10
10.35230025250848
 20
-2.417072173204259
 30
0.0
 10
10.38418522285254
 20
-2.446472664048138
 30
0.0
 10
10.46025178530032
 20
-2.51661959881124
 30
0.0
 10
10.41292824952327
 20
-2.526016844423831
 30
0.0
 10
10.52217919286916
 20
-2.503880311738094
 30
0.0
 10
10.5836165650331
 20
-2.491439946261923
 30
0.0
 10
10.58059713021119
 20
-2.536077271293821
 30
0.0
 10
10.60763565040055
 20
-2.572524471260067
 30
0.0
 10
10.6245377882401
 20
-2.595327452102045
 30
0.0
 10
10.68367607763083
 20
-2.551773105317415
 30
0.0
 10
10.7027596897489
 20
-2.549458504755686
 30
0.0
 10
10.78093095426438
 20
-2.540012255604223
 30
0.0
 10
10.74834033293008
 20
-2.669497577541481
 30
0.0
 10
10.8134701218705
 20
-2.64625029793606
 30
0.0
 10
10.97824452676996
 20
-2.587419914134089
 30
0.0
 10
10.9160827189269
 20
-2.723220158988081
 30
0.0
 10
11.0377944458939
 20
-2.695985624640532
 30
0.0
 10
11.1527371504679
 20
-2.670346972261453
 30
0.0
 10
11.06334162499994
 20
-2.755444887220708
 30
0.0
 10
11.09422038931249
 20
-2.786846355967997
 30
0.0
 10
11.1090986809302
 20
-2.801977015820411
 30
0.0
 10
11.33510872675171
 20
-2.734404400397921
 30
0.0
 10
11.28869910700167
 20
-2.812720225355318
 30
0.0
 10
11.25540936849322
 20
-2.868924019392933
 30
0.0
 10
11.29405682742173
 20
-2.966539072050232
 30
0.0
 10
11.28758836007422
 20
-3.030137500348815
 30
0.0
 10
11.27940803571154
 20
-3.11064705047046
 30
0.0
 10
11.32808488592779
 20
-3.188884469767408
 30
0.0
 10
11.31800404091933
 20
-3.280865748717436
 30
0.0
 10
11.30924139115043
 20
-3.360813391574829
 30
0.0
 10
11.28322296132367
 20
-3.443350054820699
 30
0.0
 10
11.24144744305307
 20
-3.512490783547125
 30
0.0
 10
11.15999702494762
 20
-3.647216217411912
 30
0.0
 10
10.90549795413727
 20
-3.700087770686221
 30
0.0
 10
10.76215279749719
 20
-3.686928686606949
 30
0.0
 10
10.5322281855201
 20
-3.665826128610458
 30
0.0
 10
10.29341759820179
 20
-3.623787624664992
 30
0.0
 10
10.06727605955168
 20
-3.577436809156893
 30
0.0
 10
9.824747736961928
 20
-3.527701482451549
 30
0.0
 10
9.640598965608053
 20
-3.499238592675359
 30
0.0
 10
9.395437519437765
 20
-3.558096745146713
 30
0.0
 10
9.158678547010215
 20
-3.614927784493425
 30
0.0
 10
8.939815667569114
 20
-3.681845385925006
 30
0.0
 10
8.699529256958334
 20
-3.59841032442513
 30
0.0
 10
8.573511752236804
 20
-3.554646895859365
 30
0.0
 10
8.629688594327718
 20
-3.573059159475254
 30
0.0
 10
8.522802071809464
 20
-3.617188481132833
 30
0.0
 10
8.462561202758655
 20
-3.642056144477364
 30
0.0
 10
8.427983487860349
 20
-3.707982240948038
 30
0.0
 10
8.432557151636551
 20
-3.771490829422949
 30
0.0
 10
8.439842344651499
 20
-3.872710909207537
 30
0.0
 10
8.496791809227563
 20
-3.965203458433191
 30
0.0
 10
8.501802421237874
 20
-4.070463063405378
 30
0.0
 10
8.505155080130002
 20
-4.140402549844086
 30
0.0
 10
8.593805751775664
 20
-4.205895781712544
 30
0.0
 10
8.613465155491287
 20
-4.277664733663427
 30
0.0
 10
8.630041419784877
 20
-4.338167771655574
 30
0.0
 10
8.611799035100198
 20
-4.598904176441275
 30
0.0
 10
8.661326096746784
 20
-4.616571586241434
 30
0.0
 10
8.773216697470945
 20
-4.656440866788911
 30
0.0
 10
8.90460499023023
 20
-4.698232719576026
 30
0.0
 10
9.021180329425988
 20
-4.719755074564369
 30
0.0
 10
9.216098445527955
 20
-4.755741641257385
 30
0.0
 10
9.52982564554539
 20
-4.83383531684736
 30
0.0
 10
9.597423579463994
 20
-5.056113743060513
 30
0.0
 10
9.676338881057037
 20
-5.315597290665525
 30
0.0
 10
9.477078234523155
 20
-5.703680829565529
 30
0.0
 10
9.16411467301542
 20
-5.541510146105844
 30
0.0
 10
8.87764650912426
 20
-5.393088222657562
 30
0.0
 10
9.325682612918348
 20
-5.419968298087674
 30
0.0
 10
9.199821102807315
 20
-5.22710343032491
 30
0.0
 10
9.018985787527475
 20
-4.950004743360674
 30
0.0
 10
8.667239190613044
 20
-5.051267292864458
 30
0.0
 10
8.396980581182156
 20
-5.08202681521766
 30
0.0
 10
8.289035582190687
 20
-5.094297301751453
 30
0.0
 10
8.158235331913955
 20
-5.127216246795279
 30
0.0
 10
8.09735333320499
 20
-5.226399412743945
 30
0.0
 10
8.061913155994464
 20
-5.28417132007707
 30
0.0
 10
7.880647426262662
 20
-5.481714392491262
 30
0.0
 10
7.882986528592836
 20
-5.537890417857448
 30
0.0
 10
7.884829061713313
 20
-5.581875995801131
 30
0.0
 10
7.953910986188096
 20
-5.693394986348039
 30
0.0
 10
7.967879445402407
 20
-5.743221786318738
 30
0.0
 10
7.986049958213091
 20
-5.808063271095711
 30
0.0
 10
8.02012375336398
 20
-5.874513705452765
 30
0.0
 10
7.983339245692402
 20
-5.940675018917672
 30
0.0
 10
7.969134752754648
 20
-5.966181361741911
 30
0.0
 10
7.864775996199291
 20
-6.02511628643285
 30
0.0
 10
7.886925596498941
 20
-6.062778774203151
 30
0.0
 10
7.920986324039454
 20
-6.12066829003662
 30
0.0
 10
7.936622537080666
 20
-6.197283692141607
 30
0.0
 10
7.955425195563672
 20
-6.26093602433611
 30
0.0
 10
7.993558117315741
 20
-6.389965613349962
 30
0.0
 10
8.04343637099603
 20
-6.5495472764085
 30
0.0
 10
8.041182208127388
 20
-6.6853181191407
 30
0.0
 10
8.039209815617443
 20
-6.803083427645636
 30
0.0
 10
7.946912463827124
 20
-6.880340776126356
 30
0.0
 10
7.940992836130867
 20
-6.993859111122017
 30
0.0
 10
7.937144424747733
 20
-7.068122343282766
 30
0.0
 10
7.855151700800686
 20
-7.058125621019118
 30
0.0
 10
7.849049126555681
 20
-7.118576388567008
 30
0.0
 10
7.842717869121593
 20
-7.181340123226063
 30
0.0
 10
7.78690610340459
 20
-7.221011756152544
 30
0.0
 10
7.749963150953008
 20
-7.265454700472572
 30
0.0
 10
7.664233907038604
 20
-7.36854508204831
 30
0.0
 10
7.592669953227944
 20
-7.482115687484237
 30
0.0
 10
7.507847274812497
 20
-7.585480488886888
 30
0.0
 10
7.312898939848436
 20
-7.82306272078338
 30
0.0
 10
7.100236641723566
 20
-8.047396028782106
 30
0.0
 10
6.905534957913131
 20
-8.2865202387526
 30
0.0
 10
6.804639118216098
 20
-8.41045182609797
 30
0.0
 10
6.755669880199902
 20
-8.51882152243752
 30
0.0
 10
6.853447461257751
 20
-8.674443699426648
 30
0.0
 10
6.893257937548797
 20
-8.73782324524662
 30
0.0
 10
6.998746225704862
 20
-8.847798624269746
 30
0.0
 10
7.067436121859423
 20
-8.876692745197083
 30
0.0
 10
7.123496988904409
 20
-8.90026671507783
 30
0.0
 10
7.16977593253811
 20
-9.00821824787618
 30
0.0
 10
7.222110897054259
 20
-9.034626255848403
 30
0.0
 10
7.269337242474547
 20
-9.058502414228668
 30
0.0
 10
7.259954697920143
 20
-9.101324974810824
 30
0.0
 10
7.292061817647638
 20
-9.13363954286246
 30
0.0
 10
7.325233947654977
 20
-9.167027288451107
 30
0.0
 10
7.430807992012382
 20
-9.156640171323412
 30
0.0
 10
7.470285244231187
 20
-9.150798949298808
 30
0.0
 10
7.53334953393922
 20
-9.141453974130096
 30
0.0
 10
7.743594324061304
 20
-9.03618130155668
 30
0.0
 10
7.79496146865242
 20
-9.069544545375871
 30
0.0
 10
7.875726653908335
 20
-9.12197179989822
 30
0.0
 10
7.95842584556951
 20
-9.013236210457762
 30
0.0
 10
8.028918255289984
 20
-9.006191134789788
 30
0.0
 10
8.133112033256769
 20
-8.99577788244043
 30
0.0
 10
8.180646284258778
 20
-8.969431945623883
 30
0.0
 10
8.28290033874671
 20
-8.983638072016472
 30
0.0
 10
8.34677482032344
 20
-8.99247014346694
 30
0.0
 10
8.343025232748232
 20
-9.038807891353851
 30
0.0
 10
8.388520119737727
 20
-9.067100902183457
 30
0.0
 10
8.426610571759259
 20
-9.090792480560669
 30
0.0
 10
8.481900449768293
 20
-9.089327274702327
 30
0.0
 10
8.52347505351885
 20
-9.110602978533633
 30
0.0
 10
8.590355902303498
 20
-9.144827051214683
 30
0.0
 10
8.646389817399873
 20
-9.196718533693202
 30
0.0
 10
8.67592180107282
 20
-9.266878536065052
 30
0.0
 10
8.688310712833097
 20
-9.296267592748638
 30
0.0
 10
8.689158474080461
 20
-9.362651055598942
 30
0.0
 10
8.72865614444034
 20
-9.376084559500264
 30
0.0
 10
8.831433720085062
 20
-9.411025717325325
 30
0.0
 10
8.914785475552208
 20
-9.482311167679654
 30
0.0
 10
8.951393570470398
 20
-9.586144769624953
 30
0.0
 10
8.963716327450658
 20
-9.621090827800192
 30
0.0
 10
8.963788199298405
 20
-9.880375094336967
 30
0.0
 10
8.875072189600434
 20
-9.774739795550557
 30
0.0
 10
8.804677786965057
 20
-9.691015613169258
 30
0.0
 10
8.659672227025641
 20
-9.72956179811197
 30
0.0
 10
8.59184479318593
 20
-9.650845777568898
 30
0.0
 10
8.576509951907887
 20
-9.816866505844802
 30
0.0
 10
8.434876652284377
 20
-9.756768563781735
 30
0.0
 10
8.330557915287272
 20
-9.811469582574546
 30
0.0
 10
8.368219586328097
 20
-9.870525382671758
 30
0.0
 10
8.46661787889722
 20
-10.06212269218579
 30
0.0
 10
8.40173800801151
 20
-10.12886878123262
 30
0.0
 10
8.347100693814102
 20
-10.18508564288004
 30
0.0
 10
8.27578584134115
 20
-10.14639571420887
 30
0.0
 10
8.212675814996095
 20
-10.13848980967365
 30
0.0
 10
7.96290068549269
 20
-10.1072418853434
 30
0.0
 10
7.692081802251651
 20
-10.07820892104251
 30
0.0
 10
7.456334752941857
 20
-9.986330549516323
 30
0.0
 10
7.316445979359488
 20
-9.931812477263772
 30
0.0
 10
7.178425874120623
 20
-9.888725297556245
 30
0.0
 10
7.030591993172315
 20
-9.861508731161747
 30
0.0
 10
6.93559781320803
 20
-9.843998132689068
 30
0.0
 10
6.774610565265119
 20
-9.848179768136914
 30
0.0
 10
6.691487492985111
 20
-9.815563011583182
 30
0.0
 10
6.696492387920393
 20
-9.81752315320298
 30
0.0
 10
6.598864267659918
 20
-9.686206732296796
 30
0.0
 10
6.601438586987292
 20
-9.680143360887087
 30
0.0
 10
6.612820475992875
 20
-9.653420096807066
 30
0.0
 10
6.566417390058834
 20
-9.495143561377063
 30
0.0
 10
6.550658668163199
 20
-9.491406224688413
 30
0.0
 10
6.523764708416997
 20
-9.485055365839697
 30
0.0
 10
6.409436998268044
 20
-9.692854879281336
 30
0.0
 10
6.382804390736131
 20
-9.722074057022786
 30
0.0
 10
6.33547350442604
 20
-9.773991674718369
 30
0.0
 10
6.259283616396715
 20
-9.808937732889515
 30
0.0
 10
6.205659042036459
 20
-9.859718468445356
 30
0.0
 10
6.151324733064812
 20
-9.911230990205796
 30
0.0
 10
6.036428581854276
 20
-9.936556019925723
 30
0.0
 10
6.063000751690575
 20
-9.809264423150655
 30
0.0
 10
6.079015108726101
 20
-9.732583682992981
 30
0.0
 10
6.118218757847444
 20
-9.648542611054683
 30
0.0
 10
6.150456553687339
 20
-9.578488783023431
 30
0.0
 10
6.221184180408778
 20
-9.424839815272257
 30
0.0
 10
6.495016781398867
 20
-9.25833231850571
 30
0.0
 10
6.331311470419475
 20
-9.054358348112297
 30
0.0
 10
6.194709200957832
 20
-8.88420498791485
 30
0.0
 10
5.984549350319197
 20
-8.695379645336288
 30
0.0
 10
5.893716387676173
 20
-8.497965615566399
 30
0.0
 10
5.78673185808936
 20
-8.26554508992131
 30
0.0
 10
6.064000423993093
 20
-8.105377017842986
 30
0.0
 10
6.190906526257296
 20
-7.960285701715166
 30
0.0
 10
6.365889185372907
 20
-7.760272850859918
 30
0.0
 10
6.384137287136986
 20
-7.505181653938583
 30
0.0
 10
6.426130054445265
 20
-7.255745465590709
 30
0.0
 10
6.439184597635201
 20
-7.178202263120258
 30
0.0
 10
6.539464626175636
 20
-7.002743452949769
 30
0.0
 10
6.447704679884914
 20
-6.958405049510575
 30
0.0
 10
6.312618253271037
 20
-6.893147034634441
 30
0.0
 10
6.340810806837705
 20
-6.953205773859887
 30
0.0
 10
6.277655860574592
 20
-7.078836150610565
 30
0.0
 10
6.254709952738191
 20
-7.124522151408225
 30
0.0
 10
6.290364112071857
 20
-7.147820068009978
 30
0.0
 10
6.286861992375937
 20
-7.19720256921265
 30
0.0
 10
6.28158349433622
 20
-7.271741854651509
 30
0.0
 10
6.248992056278994
 20
-7.339928647790227
 30
0.0
 10
6.204516442927822
 20
-7.398718195313752
 30
0.0
 10
6.130958861745663
 20
-7.495929785482783
 30
0.0
 10
6.004085428514397
 20
-7.507662866521539
 30
0.0
 10
5.889692380321359
 20
-7.496555397338776
 30
0.0
 10
5.760094350239961
 20
-7.483933718754264
 30
0.0
 10
5.820832605219935
 20
-7.611342924030396
 30
0.0
 10
5.815735420279439
 20
-7.696777329971306
 30
0.0
 10
5.809763522140606
 20
-7.796626944072891
 30
0.0
 10
5.746379892689888
 20
-7.892373328381735
 30
0.0
 10
5.744020372210924
 20
-7.986643072673208
 30
0.0
 10
5.737943933179255
 20
-8.231530099013828
 30
0.0
 10
5.521772981552936
 20
-8.508563447906251
 30
0.0
 10
5.43029970596198
 20
-8.732178037316519
 30
0.0
 10
5.328483416423826
 20
-8.981063752556818
 30
0.0
 10
5.334324638439195
 20
-9.226617227048665
 30
0.0
 10
5.405830604710204
 20
-9.487773428835327
 30
0.0
 10
5.440557780398219
 20
-9.61462236029739
 30
0.0
 10
5.552756286699542
 20
-9.704945686133138
 30
0.0
 10
5.584255762520898
 20
-9.826562672921984
 30
0.0
 10
5.591207731463871
 20
-9.853250001073143
 30
0.0
 10
5.62588917051677
 20
-9.921067634209722
 30
0.0
 10
5.64841854825603
 20
-9.943455718409318
 30
0.0
 10
5.779519353573821
 20
-10.07370059523161
 30
0.0
 10
5.782661297242144
 20
-10.13281846647864
 30
0.0
 10
5.995859367401231
 20
-10.09813702743223
 30
0.0
 10
6.109547581338297
 20
-10.07957775320235
 30
0.0
 10
6.170365058711822
 20
-10.13958422198627
 30
0.0
 10
6.269952503871334
 20
-10.15799975250681
 30
0.0
 10
6.300538063667798
 20
-10.16363189276186
 30
0.0
 10
6.374766993349036
 20
-10.19138423119572
 30
0.0
 10
6.403934717374593
 20
-10.18410883888573
 30
0.0
 10
6.425555896165027
 20
-10.17115883658668
 30
0.0
 10
6.447404941418603
 20
-10.15862699783303
 30
0.0
 10
6.469468785524592
 20
-10.14647411979255
 30
0.0
 10
6.592180184716881
 20
-10.13579461487398
 30
0.0
 10
6.667365500162127
 20
-10.19347831583925
 30
0.0
 10
6.749082987553568
 20
-10.27293919019838
 30
0.0
 10
6.813722741085207
 20
-10.33581073264968
 30
0.0
 10
6.883888460535243
 20
-10.33968854615685
 30
0.0
 10
6.961098438928603
 20
-10.39155716031751
 30
0.0
 10
7.07440769214832
 20
-10.46763352348151
 30
0.0
 10
7.285398152785243
 20
-10.94874375021418
 30
0.0
 10
7.002098067785204
 20
-10.8338271808503
 30
0.0
 10
7.002098067785204
 20
-10.8338271808503
 30
0.0
 10
6.792846416094309
 20
-10.70272310861459
 30
0.0
 10
6.724528946843141
 20
-10.7719683782263
 30
0.0
 10
6.604672820605047
 20
-10.8934840910247
 30
0.0
 10
6.40083769358873
 20
-10.78400038085326
 30
0.0
 10
6.252049060326473
 20
-10.756757679237
 30
0.0
 10
6.288940559053016
 20
-10.88261183882719
 30
0.0
 10
6.401922305273122
 20
-11.04643720849493
 30
0.0
 10
6.330808367308286
 20
-11.18154650342755
 30
0.0
 10
6.263386029394042
 20
-11.30967442729169
 30
0.0
 10
6.1357089381096
 20
-11.07925324609773
 30
0.0
 10
6.066444067079045
 20
-11.0701287868554
 30
0.0
 10
5.991958685535059
 20
-11.06034441326766
 30
0.0
 10
5.807386033552474
 20
-11.11014507800776
 30
0.0
 10
5.749103672673792
 20
-11.04497363605631
 30
0.0
 10
5.673102448280688
 20
-10.95995576020586
 30
0.0
 10
5.536166954741374
 20
-10.84068767645302
 30
0.0
 10
5.414154672727287
 20
-10.83971087254051
 30
0.0
 10
5.30192349739496
 20
-10.83884514332011
 30
0.0
 10
5.298258032537382
 20
-11.48354878961418
 30
0.0
 10
5.081891883499249
 20
-11.21702506668609
 30
0.0
 10
5.01478888533322
 20
-11.13439856361181
 30
0.0
 10
4.942812485061191
 20
-11.14955699213351
 30
0.0
 10
4.873385085624666
 20
-11.06773741402582
 30
0.0
 10
4.795887619795545
 20
-10.97637194623066
 30
0.0
 10
4.841487047681375
 20
-10.78170048128294
 30
0.0
 10
4.832371572429565
 20
-10.67027623091692
 30
0.0
 10
4.821748421582949
 20
-10.54026657109441
 30
0.0
 10
4.846308179355686
 20
-10.42789491894698
 30
0.0
 10
4.838996851120251
 20
-10.30242298697403
 30
0.0
 10
4.829543251441477
 20
-10.14023760246593
 30
0.0
 10
4.810019424190689
 20
-10.0044683931841
 30
0.0
 10
4.778024195886524
 20
-9.843880524094931
 30
0.0
 10
4.720337228034964
 20
-9.55433983820588
 30
0.0
 10
4.628008023959485
 20
-9.27206637736981
 30
0.0
 10
4.569483912291313
 20
-8.979311059224477
 30
0.0
 10
4.538088977357928
 20
-8.82226614611285
 30
0.0
 10
4.662218212323586
 20
-8.77060824718544
 30
0.0
 10
4.71582808562525
 20
-8.640365003822883
 30
0.0
 10
4.787471261829055
 20
-8.466343630838765
 30
0.0
 10
4.70331666502457
 20
-8.37281710690748
 30
0.0
 10
4.644478930691459
 20
-8.208322022188742
 30
0.0
 10
4.588928517199254
 20
-8.053067371755308
 30
0.0
 10
4.543369108888871
 20
-7.861731414459629
 30
0.0
 10
4.587341619229025
 20
-7.698214767103839
 30
0.0
 10
4.623421292646336
 20
-7.564051240501284
 30
0.0
 10
4.568295576497727
 20
-7.571040778823872
 30
0.0
 10
4.463492521182022
 20
-7.478471457382764
 30
0.0
 10
4.412855529337321
 20
-7.596365808541981
 30
0.0
 10
4.251784158647435
 20
-7.656204031826948
 30
0.0
 10
4.134790655903986
 20
-7.682822755015725
 30
0.0
 10
4.029170874908194
 20
-7.706841023656503
 30
0.0
 10
3.992921322554871
 20
-7.744905340455792
 30
0.0
 10
3.912595535706423
 20
-7.818673636854252
 30
0.0
 10
3.721291430706136
 20
-7.994367664015019
 30
0.0
 10
3.579240784249413
 20
-8.23362255009589
 30
0.0
 10
3.430635097527581
 20
-8.444860478627131
 30
0.0
 10
3.157300699189288
 20
-8.83342588567181
 30
0.0
 10
2.819130533151653
 20
-9.287786713077745
 30
0.0
 10
2.279634221388594
 20
-9.236143515182675
 30
0.0
 10
1.853185810632251
 20
-9.195281096200485
 30
0.0
 10
1.393970365811811
 20
-8.928375145645607
 30
0.0
 10
1.130252912327086
 20
-8.593961917720737
 30
0.0
 10
0.9450056449497752
 20
-8.35903077734752
 30
0.0
 10
0.8569234143825749
 20
-8.09617741960796
 30
0.0
 10
0.7511999092395929
 20
-7.821233254977111
 30
0.0
 10
0.7111550326817198
 20
-7.717164436037314
 30
0.0
 10
0.6602754733200729
 20
-7.644508520002141
 30
0.0
 10
0.5745984998567084
 20
-7.572858809996912
 30
0.0
 10
0.5246475575859854
 20
-7.531055523054166
 30
0.0
 10
0.4316772238481942
 20
-7.417419579556836
 30
0.0
 10
0.5459208112451076
 20
-7.377432690522406
 30
0.0
  0
ENDSEC
  0
SECTION
  2
OBJECTS
  0
DICTIONARY
  5
C
330
0
100
AcDbDictionary
281
     1
  3
ACAD_GROUP
350
D
  3
ACAD_LAYOUT
350
1A
  3
ACAD_MATERIAL
350
3B
  3
ACAD_MLEADERSTYLE
350
43
  3
ACAD_MLINESTYLE
350
17
  3
ACAD_PLOTSETTINGS
350
19
  3
ACAD_PLOTSTYLENAME
350
E
  3
ACAD_TABLESTYLE
350
42
  3
ACAD_VISUALSTYLE
350
2A
  0
SUN
  5
3F
330
29
100
AcDbSun
 90
        1
290
     0
 63
     7
421
 16777215
 40
1.0
291
     1
 91
  2455826
 92
 54000000
292
     0
 70
     2
 71
   256
280
     1
  0
DICTIONARY
  5
D
102
{ACAD_REACTORS
330
C
102
}
330
C
100
AcDbDictionary
281
     1
  0
DICTIONARY
  5
1A
102
{ACAD_REACTORS
330
C
102
}
330
C
100
AcDbDictionary
281
     1
  3
Layout1
350
1E
  3
Layout2
350
26
  3
Model
350
22
  0
DICTIONARY
  5
3B
102
{ACAD_REACTORS
330
C
102
}
330
C
100
AcDbDictionary
281
     1
  3
ByBlock
350
3D
  3
ByLayer
350
3C
  3
Global
350
3E
  0
DICTIONARY
  5
43
102
{ACAD_REACTORS
330
C
102
}
330
C
100
AcDbDictionary
281
     1
  0
DICTIONARY
  5
17
102
{ACAD_REACTORS
330
C
102
}
330
C
100
AcDbDictionary
281
     1
  3
Standard
350
18
  0
DICTIONARY
  5
19
102
{ACAD_REACTORS
330
C
102
}
330
C
100
AcDbDictionary
281
     1
  0
ACDBDICTIONARYWDFLT
  5
E
102
{ACAD_REACTORS
330
C
102
}
330
C
100
AcDbDictionary
281
     1
  3
Normal
350
F
100
AcDbDictionaryWithDefault
340
F
  0
DICTIONARY
  5
42
102
{ACAD_REACTORS
330
C
102
}
330
C
100
AcDbDictionary
281
     1
  0
DICTIONARY
  5
2A
102
{ACAD_REACTORS
330
C
102
}
330
C
100
AcDbDictionary
281
     1
  3
2dWireframe
350
2F
  3
3D Hidden
350
31
  3
3dWireframe
350
30
  3
Basic
350
32
  3
Brighten
350
36
  3
ColorChange
350
3A
  3
Conceptual
350
34
  3
Dim
350
35
  3
Facepattern
350
39
  3
Flat
350
2B
  3
FlatWithEdges
350
2C
  3
Gouraud
350
2D
  3
GouraudWithEdges
350
2E
  3
Linepattern
350
38
  3
Realistic
350
33
  3
Thicken
350
37
  0
LAYOUT
  5
1E
102
{ACAD_REACTORS
330
1A
102
}
330
1A
100
AcDbPlotSettings
  1

  2
none_device
  4

  6

 40
0.0
 41
0.0
 42
0.0
 43
0.0
 44
0.0
 45
0.0
 46
0.0
 47
0.0
 48
0.0
 49
0.0
140
0.0
141
0.0
142
1.0
143
1.0
 70
   688
 72
     0
 73
     0
 74
     5
  7

 75
    16
 76
     0
 77
     2
 78
   300
147
1.0
148
0.0
149
0.0
100
AcDbLayout
  1
Layout1
 70
     1
 71
     1
 10
0.0
 20
0.0
 11
12.0
 21
9.0
 12
0.0
 22
0.0
 32
0.0
 14
1.000000000000000E+20
 24
1.000000000000000E+20
 34
1.000000000000000E+20
 15
-1.000000000000000E+20
 25
-1.000000000000000E+20
 35
-1.000000000000000E+20
146
0.0
 13
0.0
 23
0.0
 33
0.0
 16
1.0
 26
0.0
 36
0.0
 17
0.0
 27
1.0
 37
0.0
 76
     0
330
1B
  0
LAYOUT
  5
26
102
{ACAD_REACTORS
330
1A
102
}
330
1A
100
AcDbPlotSettings
  1

  2
none_device
  4

  6

 40
0.0
 41
0.0
 42
0.0
 43
0.0
 44
0.0
 45
0.0
 46
0.0
 47
0.0
 48
0.0
 49
0.0
140
0.0
141
0.0
142
1.0
143
1.0
 70
   688
 72
     0
 73
     0
 74
     5
  7

 75
    16
 76
     0
 77
     2
 78
   300
147
1.0
148
0.0
149
0.0
100
AcDbLayout
  1
Layout2
 70
     1
 71
     2
 10
0.0
 20
0.0
 11
0.0
 21
0.0
 12
0.0
 22
0.0
 32
0.0
 14
0.0
 24
0.0
 34
0.0
 15
0.0
 25
0.0
 35
0.0
146
0.0
 13
0.0
 23
0.0
 33
0.0
 16
1.0
 26
0.0
 36
0.0
 17
0.0
 27
1.0
 37
0.0
 76
     0
330
23
  0
LAYOUT
  5
22
102
{ACAD_REACTORS
330
1A
102
}
330
1A
100
AcDbPlotSettings
  1

  2
none_device
  4

  6

 40
0.0
 41
0.0
 42
0.0
 43
0.0
 44
0.0
 45
0.0
 46
0.0
 47
0.0
 48
0.0
 49
0.0
140
0.0
141
0.0
142
1.0
143
1.0
 70
  1712
 72
     0
 73
     0
 74
     0
  7

 75
     0
 76
     0
 77
     2
 78
   300
147
1.0
148
0.0
149
0.0
100
AcDbLayout
  1
Model
 70
     1
 71
     0
 10
0.0
 20
0.0
 11
12.0
 21
9.0
 12
0.0
 22
0.0
 32
0.0
 14
1.000000000000000E+20
 24
1.000000000000000E+20
 34
1.000000000000000E+20
 15
-1.000000000000000E+20
 25
-1.000000000000000E+20
 35
-1.000000000000000E+20
146
0.0
 13
0.0
 23
0.0
 33
0.0
 16
1.0
 26
0.0
 36
0.0
 17
0.0
 27
1.0
 37
0.0
 76
     0
330
1F
331
29
  0
MATERIAL
  5
3D
102
{ACAD_REACTORS
330
3B
102
}
330
3B
100
AcDbMaterial
  1
ByBlock
 72
     1
 94
      127
  0
MATERIAL
  5
3C
102
{ACAD_REACTORS
330
3B
102
}
330
3B
100
AcDbMaterial
  1
ByLayer
 72
     1
 94
      127
  0
MATERIAL
  5
3E
102
{ACAD_REACTORS
330
3B
102
}
330
3B
100
AcDbMaterial
  1
Global
 72
     1
 94
      127
  0
MLINESTYLE
  5
18
102
{ACAD_REACTORS
330
17
102
}
330
17
100
AcDbMlineStyle
  2
Standard
 70
     0
  3

 62
   256
 51
90.0
 52
90.0
 71
     2
 49
0.5
 62
   256
  6
BYLAYER
 49
-0.5
 62
   256
  6
BYLAYER
  0
ACDBPLACEHOLDER
  5
F
102
{ACAD_REACTORS
330
E
102
}
330
E
  0
VISUALSTYLE
  5
2F
102
{ACAD_REACTORS
330
2A
102
}
330
2A
100
AcDbVisualStyle
  2
2dWireframe
 70
     4
177
     2
291
     0
 71
     0
176
     1
 72
     2
176
     1
 73
     0
176
     1
 90
        0
176
     1
 40
-0.6
176
     1
 41
-30.0
176
     1
 62
     5
 63
     7
421
 16777215
176
     1
 74
     1
176
     1
 91
        4
176
     1
 64
     7
176
     1
 65
   257
176
     1
 75
     1
176
     1
175
     1
176
     1
 42
1.0
176
     1
 92
        0
176
     1
 66
   257
176
     1
 43
1.0
176
     1
 76
     1
176
     1
 77
     6
176
     1
 78
     2
176
     1
 67
     7
176
     1
 79
     5
176
     1
170
     0
176
     1
171
     0
176
     1
290
     0
176
     1
 93
        1
176
     1
 44
0.0
176
     1
173
     0
176
     1
  0
VISUALSTYLE
  5
31
102
{ACAD_REACTORS
330
2A
102
}
330
2A
100
AcDbVisualStyle
  2
3D Hidden
 70
     6
177
     2
291
     0
 71
     1
176
     1
 72
     2
176
     1
 73
     2
176
     1
 90
        0
176
     1
 40
-0.6
176
     1
 41
-30.0
176
     1
 62
     5
 63
     7
421
 16777215
176
     1
 74
     2
176
     1
 91
        2
176
     1
 64
     7
176
     1
 65
   257
176
     1
 75
     2
176
     1
175
     1
176
     1
 42
40.0
176
     1
 92
        0
176
     1
 66
   257
176
     1
 43
1.0
176
     1
 76
     1
176
     1
 77
     6
176
     1
 78
     2
176
     1
 67
     7
176
     1
 79
     3
176
     1
170
     0
176
     1
171
     0
176
     1
290
     0
176
     1
 93
        1
176
     1
 44
0.0
176
     1
173
     0
176
     1
  0
VISUALSTYLE
  5
30
102
{ACAD_REACTORS
330
2A
102
}
330
2A
100
AcDbVisualStyle
  2
3dWireframe
 70
     5
177
     2
291
     0
 71
     0
176
     1
 72
     2
176
     1
 73
     0
176
     1
 90
        0
176
     1
 40
-0.6
176
     1
 41
-30.0
176
     1
 62
     5
 63
     7
421
 16777215
176
     1
 74
     1
176
     1
 91
        4
176
     1
 64
     7
176
     1
 65
   257
176
     1
 75
     1
176
     1
175
     1
176
     1
 42
1.0
176
     1
 92
        0
176
     1
 66
   257
176
     1
 43
1.0
176
     1
 76
     1
176
     1
 77
     6
176
     1
 78
     2
176
     1
 67
     7
176
     1
 79
     5
176
     1
170
     0
176
     1
171
     0
176
     1
290
     0
176
     1
 93
        1
176
     1
 44
0.0
176
     1
173
     0
176
     1
  0
VISUALSTYLE
  5
32
102
{ACAD_REACTORS
330
2A
102
}
330
2A
100
AcDbVisualStyle
  2
Basic
 70
     7
177
     2
291
     1
 71
     1
176
     1
 72
     0
176
     1
 73
     1
176
     1
 90
        0
176
     1
 40
-0.6
176
     1
 41
-30.0
176
     1
 62
     5
 63
     7
421
 16777215
176
     1
 74
     0
176
     1
 91
        4
176
     1
 64
     7
176
     1
 65
   257
176
     1
 75
     1
176
     1
175
     1
176
     1
 42
1.0
176
     1
 92
        8
176
     1
 66
     7
176
     1
 43
1.0
176
     1
 76
     1
176
     1
 77
     6
176
     1
 78
     2
176
     1
 67
     7
176
     1
 79
     5
176
     1
170
     0
176
     1
171
     0
176
     1
290
     0
176
     1
 93
        1
176
     1
 44
0.0
176
     1
173
     0
176
     1
  0
VISUALSTYLE
  5
36
102
{ACAD_REACTORS
330
2A
102
}
330
2A
100
AcDbVisualStyle
  2
Brighten
 70
    12
177
     2
291
     1
 71
     2
176
     1
 72
     2
176
     1
 73
     0
176
     1
 90
        0
176
     1
 40
-0.6
176
     1
 41
-30.0
176
     1
 62
     5
 63
     7
421
 16777215
176
     1
 74
     1
176
     1
 91
        4
176
     1
 64
     7
176
     1
 65
   257
176
     1
 75
     1
176
     1
175
     1
176
     1
 42
1.0
176
     1
 92
        8
176
     1
 66
     7
176
     1
 43
1.0
176
     1
 76
     1
176
     1
 77
     6
176
     1
 78
     2
176
     1
 67
     7
176
     1
 79
     5
176
     1
170
     0
176
     1
171
     0
176
     1
290
     0
176
     1
 93
        1
176
     1
 44
50.0
176
     1
173
     0
176
     1
  0
VISUALSTYLE
  5
3A
102
{ACAD_REACTORS
330
2A
102
}
330
2A
100
AcDbVisualStyle
  2
ColorChange
 70
    16
177
     2
291
     1
 71
     2
176
     1
 72
     2
176
     1
 73
     3
176
     1
 90
        0
176
     1
 40
-0.6
176
     1
 41
-30.0
176
     1
 62
     5
 63
     8
421
  8421504
176
     1
 74
     1
176
     1
 91
        4
176
     1
 64
     7
176
     1
 65
   257
176
     1
 75
     1
176
     1
175
     1
176
     1
 42
1.0
176
     1
 92
        8
176
     1
 66
     8
424
  8421504
176
     1
 43
1.0
176
     1
 76
     1
176
     1
 77
     6
176
     1
 78
     2
176
     1
 67
     7
176
     1
 79
     5
176
     1
170
     0
176
     1
171
     0
176
     1
290
     0
176
     1
 93
        1
176
     1
 44
0.0
176
     1
173
     0
176
     1
  0
VISUALSTYLE
  5
34
102
{ACAD_REACTORS
330
2A
102
}
330
2A
100
AcDbVisualStyle
  2
Conceptual
 70
     9
177
     2
291
     0
 71
     3
176
     1
 72
     2
176
     1
 73
     0
176
     1
 90
        0
176
     1
 40
-0.6
176
     1
 41
-30.0
176
     1
 62
     5
 63
     7
421
 16777215
176
     1
 74
     2
176
     1
 91
        2
176
     1
 64
     7
176
     1
 65
   257
176
     1
 75
     1
176
     1
175
     1
176
     1
 42
40.0
176
     1
 92
        8
176
     1
 66
     7
176
     1
 43
1.0
176
     1
 76
     1
176
     1
 77
     6
176
     1
 78
     2
176
     1
 67
     7
176
     1
 79
     3
176
     1
170
     0
176
     1
171
     0
176
     1
290
     0
176
     1
 93
        1
176
     1
 44
0.0
176
     1
173
     0
176
     1
  0
VISUALSTYLE
  5
35
102
{ACAD_REACTORS
330
2A
102
}
330
2A
100
AcDbVisualStyle
  2
Dim
 70
    11
177
     2
291
     1
 71
     2
176
     1
 72
     2
176
     1
 73
     0
176
     1
 90
        0
176
     1
 40
-0.6
176
     1
 41
-30.0
176
     1
 62
     5
 63
     7
421
 16777215
176
     1
 74
     1
176
     1
 91
        4
176
     1
 64
     7
176
     1
 65
   257
176
     1
 75
     1
176
     1
175
     1
176
     1
 42
1.0
176
     1
 92
        8
176
     1
 66
     7
176
     1
 43
1.0
176
     1
 76
     1
176
     1
 77
     6
176
     1
 78
     2
176
     1
 67
     7
176
     1
 79
     5
176
     1
170
     0
176
     1
171
     0
176
     1
290
     0
176
     1
 93
        1
176
     1
 44
-50.0
176
     1
173
     0
176
     1
  0
VISUALSTYLE
  5
39
102
{ACAD_REACTORS
330
2A
102
}
330
2A
100
AcDbVisualStyle
  2
Facepattern
 70
    15
177
     2
291
     1
 71
     2
176
     1
 72
     2
176
     1
 73
     0
176
     1
 90
        0
176
     1
 40
-0.6
176
     1
 41
-30.0
176
     1
 62
     5
 63
     7
421
 16777215
176
     1
 74
     1
176
     1
 91
        4
176
     1
 64
     7
176
     1
 65
   257
176
     1
 75
     1
176
     1
175
     1
176
     1
 42
1.0
176
     1
 92
        8
176
     1
 66
     7
176
     1
 43
1.0
176
     1
 76
     1
176
     1
 77
     6
176
     1
 78
     2
176
     1
 67
     7
176
     1
 79
     5
176
     1
170
     0
176
     1
171
     0
176
     1
290
     0
176
     1
 93
        1
176
     1
 44
0.0
176
     1
173
     0
176
     1
  0
VISUALSTYLE
  5
2B
102
{ACAD_REACTORS
330
2A
102
}
330
2A
100
AcDbVisualStyle
  2
Flat
 70
     0
177
     2
291
     1
 71
     2
176
     1
 72
     1
176
     1
 73
     1
176
     1
 90
        2
176
     1
 40
-0.6
176
     1
 41
30.0
176
     1
 62
     5
 63
     7
421
 16777215
176
     1
 74
     0
176
     1
 91
        4
176
     1
 64
     7
176
     1
 65
   257
176
     1
 75
     1
176
     1
175
     1
176
     1
 42
1.0
176
     1
 92
        8
176
     1
 66
     7
176
     1
 43
1.0
176
     1
 76
     1
176
     1
 77
     6
176
     1
 78
     2
176
     1
 67
     7
176
     1
 79
     5
176
     1
170
     0
176
     1
171
     0
176
     1
290
     0
176
     1
 93
       13
176
     1
 44
0.0
176
     1
173
     0
176
     1
  0
VISUALSTYLE
  5
2C
102
{ACAD_REACTORS
330
2A
102
}
330
2A
100
AcDbVisualStyle
  2
FlatWithEdges
 70
     1
177
     2
291
     1
 71
     2
176
     1
 72
     1
176
     1
 73
     1
176
     1
 90
        2
176
     1
 40
-0.6
176
     1
 41
30.0
176
     1
 62
     5
 63
     7
421
 16777215
176
     1
 74
     1
176
     1
 91
        4
176
     1
 64
     7
176
     1
 65
   257
176
     1
 75
     1
176
     1
175
     1
176
     1
 42
1.0
176
     1
 92
        0
176
     1
 66
   257
176
     1
 43
1.0
176
     1
 76
     1
176
     1
 77
     6
176
     1
 78
     2
176
     1
 67
     7
176
     1
 79
     5
176
     1
170
     0
176
     1
171
     0
176
     1
290
     0
176
     1
 93
       13
176
     1
 44
0.0
176
     1
173
     0
176
     1
  0
VISUALSTYLE
  5
2D
102
{ACAD_REACTORS
330
2A
102
}
330
2A
100
AcDbVisualStyle
  2
Gouraud
 70
     2
177
     2
291
     1
 71
     2
176
     1
 72
     2
176
     1
 73
     1
176
     1
 90
        2
176
     1
 40
-0.6
176
     1
 41
30.0
176
     1
 62
     5
 63
     7
421
 16777215
176
     1
 74
     0
176
     1
 91
        4
176
     1
 64
     7
176
     1
 65
   257
176
     1
 75
     1
176
     1
175
     1
176
     1
 42
1.0
176
     1
 92
        0
176
     1
 66
     7
176
     1
 43
1.0
176
     1
 76
     1
176
     1
 77
     6
176
     1
 78
     2
176
     1
 67
     7
176
     1
 79
     5
176
     1
170
     0
176
     1
171
     0
176
     1
290
     0
176
     1
 93
       13
176
     1
 44
0.0
176
     1
173
     0
176
     1
  0
VISUALSTYLE
  5
2E
102
{ACAD_REACTORS
330
2A
102
}
330
2A
100
AcDbVisualStyle
  2
GouraudWithEdges
 70
     3
177
     2
291
     1
 71
     2
176
     1
 72
     2
176
     1
 73
     1
176
     1
 90
        2
176
     1
 40
-0.6
176
     1
 41
30.0
176
     1
 62
     5
 63
     7
421
 16777215
176
     1
 74
     1
176
     1
 91
        4
176
     1
 64
     7
176
     1
 65
   257
176
     1
 75
     1
176
     1
175
     1
176
     1
 42
1.0
176
     1
 92
        0
176
     1
 66
   257
176
     1
 43
1.0
176
     1
 76
     1
176
     1
 77
     6
176
     1
 78
     2
176
     1
 67
     7
176
     1
 79
     5
176
     1
170
     0
176
     1
171
     0
176
     1
290
     0
176
     1
 93
       13
176
     1
 44
0.0
176
     1
173
     0
176
     1
  0
VISUALSTYLE
  5
38
102
{ACAD_REACTORS
330
2A
102
}
330
2A
100
AcDbVisualStyle
  2
Linepattern
 70
    14
177
     2
291
     1
 71
     2
176
     1
 72
     2
176
     1
 73
     0
176
     1
 90
        0
176
     1
 40
-0.6
176
     1
 41
-30.0
176
     1
 62
     5
 63
     7
421
 16777215
176
     1
 74
     1
176
     1
 91
        4
176
     1
 64
     7
176
     1
 65
   257
176
     1
 75
     7
176
     1
175
     7
176
     1
 42
1.0
176
     1
 92
        8
176
     1
 66
     7
176
     1
 43
1.0
176
     1
 76
     1
176
     1
 77
     6
176
     1
 78
     2
176
     1
 67
     7
176
     1
 79
     5
176
     1
170
     0
176
     1
171
     0
176
     1
290
     0
176
     1
 93
        1
176
     1
 44
0.0
176
     1
173
     0
176
     1
  0
VISUALSTYLE
  5
33
102
{ACAD_REACTORS
330
2A
102
}
330
2A
100
AcDbVisualStyle
  2
Realistic
 70
     8
177
     2
291
     0
 71
     2
176
     1
 72
     2
176
     1
 73
     0
176
     1
 90
        0
176
     1
 40
-0.6
176
     1
 41
-30.0
176
     1
 62
     5
 63
     7
421
 16777215
176
     1
 74
     1
176
     1
 91
        0
176
     1
 64
     7
176
     1
 65
   257
176
     1
 75
     1
176
     1
175
     1
176
     1
 42
1.0
176
     1
 92
        8
176
     1
 66
     8
424
  7895160
176
     1
 43
1.0
176
     1
 76
     1
176
     1
 77
     6
176
     1
 78
     2
176
     1
 67
     7
176
     1
 79
     5
176
     1
170
     0
176
     1
171
     0
176
     1
290
     0
176
     1
 93
       13
176
     1
 44
0.0
176
     1
173
     0
176
     1
  0
VISUALSTYLE
  5
37
102
{ACAD_REACTORS
330
2A
102
}
330
2A
100
AcDbVisualStyle
  2
Thicken
 70
    13
177
     2
291
     1
 71
     2
176
     1
 72
     2
176
     1
 73
     0
176
     1
 90
        0
176
     1
 40
-0.6
176
     1
 41
-30.0
176
     1
 62
     5
 63
     7
421
 16777215
176
     1
 74
     1
176
     1
 91
        4
176
     1
 64
     7
176
     1
 65
   257
176
     1
 75
     1
176
     1
175
     1
176
     1
 42
1.0
176
     1
 92
       12
176
     1
 66
     7
176
     1
 43
1.0
176
     1
 76
     1
176
     1
 77
     6
176
     1
 78
     2
176
     1
 67
     7
176
     1
 79
     5
176
     1
170
     0
176
     1
171
     0
176
     1
290
     0
176
     1
 93
        1
176
     1
 44
0.0
176
     1
173
     0
176
     1
  0
ENDSEC
  0
EOF
