  0
SECTION
  2
HEADER
  9
$ACADVER
  1
AC1024
  9
$ACADMAINTVER
 70
     6
  9
$DWGCODEPAGE
  3
ANSI_1252
  9
$INSBASE
 10
0.0
 20
0.0
 30
0.0
  9
$EXTMIN
 10
1.000000000000000E+20
 20
1.000000000000000E+20
 30
1.000000000000000E+20
  9
$EXTMAX
 10
-1.000000000000000E+20
 20
-1.000000000000000E+20
 30
-1.000000000000000E+20
  9
$LIMMIN
 10
0.0
 20
0.0
  9
$LIMMAX
 10
12.0
 20
9.0
  9
$ORTHOMODE
 70
     0
  9
$REGENMODE
 70
     1
  9
$FILLMODE
 70
     1
  9
$QTEXTMODE
 70
     0
  9
$MIRRTEXT
 70
     1
  9
$LTSCALE
 40
1.0
  9
$ATTMODE
 70
     1
  9
$TEXTSIZE
 40
0.2
  9
$TRACEWID
 40
0.05
  9
$TEXTSTYLE
  7
Standard
  9
$CLAYER
  8
0
  9
$CELTYPE
  6
ByLayer
  9
$CECOLOR
 62
   256
  9
$CELTSCALE
 40
1.0
  9
$DISPSILH
 70
     0
  9
$DIMSCALE
 40
1.0
  9
$DIMASZ
 40
0.18
  9
$DIMEXO
 40
0.0625
  9
$DIMDLI
 40
0.38
  9
$DIMRND
 40
0.0
  9
$DIMDLE
 40
0.0
  9
$DIMEXE
 40
0.18
  9
$DIMTP
 40
0.0
  9
$DIMTM
 40
0.0
  9
$DIMTXT
 40
0.18
  9
$DIMCEN
 40
0.09
  9
$DIMTSZ
 40
0.0
  9
$DIMTOL
 70
     0
  9
$DIMLIM
 70
     0
  9
$DIMTIH
 70
     1
  9
$DIMTOH
 70
     1
  9
$DIMSE1
 70
     0
  9
$DIMSE2
 70
     0
  9
$DIMTAD
 70
     0
  9
$DIMZIN
 70
     0
  9
$DIMBLK
  1

  9
$DIMASO
 70
     1
  9
$DIMSHO
 70
     1
  9
$DIMPOST
  1

  9
$DIMAPOST
  1

  9
$DIMALT
 70
     0
  9
$DIMALTD
 70
     2
  9
$DIMALTF
 40
25.4
  9
$DIMLFAC
 40
1.0
  9
$DIMTOFL
 70
     0
  9
$DIMTVP
 40
0.0
  9
$DIMTIX
 70
     0
  9
$DIMSOXD
 70
     0
  9
$DIMSAH
 70
     0
  9
$DIMBLK1
  1

  9
$DIMBLK2
  1

  9
$DIMSTYLE
  2
Standard
  9
$DIMCLRD
 70
     0
  9
$DIMCLRE
 70
     0
  9
$DIMCLRT
 70
     0
  9
$DIMTFAC
 40
1.0
  9
$DIMGAP
 40
0.09
  9
$DIMJUST
 70
     0
  9
$DIMSD1
 70
     0
  9
$DIMSD2
 70
     0
  9
$DIMTOLJ
 70
     1
  9
$DIMTZIN
 70
     0
  9
$DIMALTZ
 70
     0
  9
$DIMALTTZ
 70
     0
  9
$DIMUPT
 70
     0
  9
$DIMDEC
 70
     4
  9
$DIMTDEC
 70
     4
  9
$DIMALTU
 70
     2
  9
$DIMALTTD
 70
     2
  9
$DIMTXSTY
  7
Standard
  9
$DIMAUNIT
 70
     0
  9
$DIMADEC
 70
     0
  9
$DIMALTRND
 40
0.0
  9
$DIMAZIN
 70
     0
  9
$DIMDSEP
 70
    46
  9
$DIMATFIT
 70
     3
  9
$DIMFRAC
 70
     0
  9
$DIMLDRBLK
  1

  9
$DIMLUNIT
 70
     2
  9
$DIMLWD
 70
    -2
  9
$DIMLWE
 70
    -2
  9
$DIMTMOVE
 70
     0
  9
$DIMFXL
 40
1.0
  9
$DIMFXLON
 70
     0
  9
$DIMJOGANG
 40
0.7853981633974483
  9
$DIMTFILL
 70
     0
  9
$DIMTFILLCLR
 70
     0
  9
$DIMARCSYM
 70
     0
  9
$DIMLTYPE
  6

  9
$DIMLTEX1
  6

  9
$DIMLTEX2
  6

  9
$DIMTXTDIRECTION
 70
     0
  9
$LUNITS
 70
     2
  9
$LUPREC
 70
     4
  9
$SKETCHINC
 40
0.1
  9
$FILLETRAD
 40
0.5
  9
$AUNITS
 70
     0
  9
$AUPREC
 70
     0
  9
$MENU
  1
.
  9
$ELEVATION
 40
0.0
  9
$PELEVATION
 40
0.0
  9
$THICKNESS
 40
0.0
  9
$LIMCHECK
 70
     0
  9
$CHAMFERA
 40
0.5
  9
$CHAMFERB
 40
0.5
  9
$CHAMFERC
 40
1.0
  9
$CHAMFERD
 40
0.0
  9
$SKPOLY
 70
     0
  9
$TDCREATE
 40
2458389.742472535
  9
$TDUCREATE
 40
2458389.325805868
  9
$TDUPDATE
 40
2458389.742472535
  9
$TDUUPDATE
 40
2458389.325805868
  9
$TDINDWG
 40
0.0000000116
  9
$TDUSRTIMER
 40
0.0000000116
  9
$USRTIMER
 70
     1
  9
$ANGBASE
 50
0.0
  9
$ANGDIR
 70
     0
  9
$PDMODE
 70
     0
  9
$PDSIZE
 40
0.0
  9
$PLINEWID
 40
0.0
  9
$SPLFRAME
 70
     0
  9
$SPLINETYPE
 70
     6
  9
$SPLINESEGS
 70
     8
  9
$HANDSEED
  5
4A
  9
$SURFTAB1
 70
     6
  9
$SURFTAB2
 70
     6
  9
$SURFTYPE
 70
     6
  9
$SURFU
 70
     6
  9
$SURFV
 70
     6
  9
$UCSBASE
  2

  9
$UCSNAME
  2

  9
$UCSORG
 10
0.0
 20
0.0
 30
0.0
  9
$UCSXDIR
 10
1.0
 20
0.0
 30
0.0
  9
$UCSYDIR
 10
0.0
 20
1.0
 30
0.0
  9
$UCSORTHOREF
  2

  9
$UCSORTHOVIEW
 70
     0
  9
$UCSORGTOP
 10
0.0
 20
0.0
 30
0.0
  9
$UCSORGBOTTOM
 10
0.0
 20
0.0
 30
0.0
  9
$UCSORGLEFT
 10
0.0
 20
0.0
 30
0.0
  9
$UCSORGRIGHT
 10
0.0
 20
0.0
 30
0.0
  9
$UCSORGFRONT
 10
0.0
 20
0.0
 30
0.0
  9
$UCSORGBACK
 10
0.0
 20
0.0
 30
0.0
  9
$PUCSBASE
  2

  9
$PUCSNAME
  2

  9
$PUCSORG
 10
0.0
 20
0.0
 30
0.0
  9
$PUCSXDIR
 10
1.0
 20
0.0
 30
0.0
  9
$PUCSYDIR
 10
0.0
 20
1.0
 30
0.0
  9
$PUCSORTHOREF
  2

  9
$PUCSORTHOVIEW
 70
     0
  9
$PUCSORGTOP
 10
0.0
 20
0.0
 30
0.0
  9
$PUCSORGBOTTOM
 10
0.0
 20
0.0
 30
0.0
  9
$PUCSORGLEFT
 10
0.0
 20
0.0
 30
0.0
  9
$PUCSORGRIGHT
 10
0.0
 20
0.0
 30
0.0
  9
$PUCSORGFRONT
 10
0.0
 20
0.0
 30
0.0
  9
$PUCSORGBACK
 10
0.0
 20
0.0
 30
0.0
  9
$USERI1
 70
     0
  9
$USERI2
 70
     0
  9
$USERI3
 70
     0
  9
$USERI4
 70
     0
  9
$USERI5
 70
     0
  9
$USERR1
 40
0.0
  9
$USERR2
 40
0.0
  9
$USERR3
 40
0.0
  9
$USERR4
 40
0.0
  9
$USERR5
 40
0.0
  9
$WORLDVIEW
 70
     1
  9
$SHADEDGE
 70
     3
  9
$SHADEDIF
 70
    70
  9
$TILEMODE
 70
     1
  9
$MAXACTVP
 70
    64
  9
$PINSBASE
 10
0.0
 20
0.0
 30
0.0
  9
$PLIMCHECK
 70
     0
  9
$PEXTMIN
 10
1.000000000000000E+20
 20
1.000000000000000E+20
 30
1.000000000000000E+20
  9
$PEXTMAX
 10
-1.000000000000000E+20
 20
-1.000000000000000E+20
 30
-1.000000000000000E+20
  9
$PLIMMIN
 10
0.0
 20
0.0
  9
$PLIMMAX
 10
12.0
 20
9.0
  9
$UNITMODE
 70
     0
  9
$VISRETAIN
 70
     1
  9
$PLINEGEN
 70
     0
  9
$PSLTSCALE
 70
     1
  9
$TREEDEPTH
 70
  3020
  9
$CMLSTYLE
  2
Standard
  9
$CMLJUST
 70
     0
  9
$CMLSCALE
 40
1.0
  9
$PROXYGRAPHICS
 70
     1
  9
$MEASUREMENT
 70
     0
  9
$CELWEIGHT
370
    -1
  9
$ENDCAPS
280
     0
  9
$JOINSTYLE
280
     0
  9
$LWDISPLAY
290
     1
  9
$INSUNITS
 70
     1
  9
$HYPERLINKBASE
  1

  9
$STYLESHEET
  1

  9
$XEDIT
290
     1
  9
$CEPSNTYPE
380
     0
  9
$PSTYLEMODE
290
     1
  9
$FINGERPRINTGUID
  2
{6B2CD4AA-11F1-4C70-9C3D-2C0E0D4758D2}
  9
$VERSIONGUID
  2
{FAEB1C32-E019-11D5-929B-00C0DF256EC4}
  9
$EXTNAMES
290
     1
  9
$PSVPSCALE
 40
0.0
  9
$OLESTARTUP
290
     0
  9
$SORTENTS
280
   127
  9
$INDEXCTL
280
     0
  9
$HIDETEXT
280
     1
  9
$XCLIPFRAME
280
     2
  9
$HALOGAP
280
     0
  9
$OBSCOLOR
 70
   257
  9
$OBSLTYPE
280
     0
  9
$INTERSECTIONDISPLAY
280
     0
  9
$INTERSECTIONCOLOR
 70
   257
  9
$DIMASSOC
280
     2
  9
$PROJECTNAME
  1

  9
$CAMERADISPLAY
290
     0
  9
$LENSLENGTH
 40
50.0
  9
$CAMERAHEIGHT
 40
0.0
  9
$STEPSPERSEC
 40
2.0
  9
$STEPSIZE
 40
6.0
  9
$3DDWFPREC
 40
2.0
  9
$PSOLWIDTH
 40
0.25
  9
$PSOLHEIGHT
 40
4.0
  9
$LOFTANG1
 40
1.570796326794897
  9
$LOFTANG2
 40
1.570796326794897
  9
$LOFTMAG1
 40
0.0
  9
$LOFTMAG2
 40
0.0
  9
$LOFTPARAM
 70
     7
  9
$LOFTNORMALS
280
     1
  9
$LATITUDE
 40
37.795
  9
$LONGITUDE
 40
-122.394
  9
$NORTHDIRECTION
 40
0.0
  9
$TIMEZONE
 70
 -8000
  9
$LIGHTGLYPHDISPLAY
280
     1
  9
$TILEMODELIGHTSYNCH
280
     1
  9
$CMATERIAL
347
3C
  9
$SOLIDHIST
280
     1
  9
$SHOWHIST
280
     1
  9
$DWFFRAME
280
     2
  9
$DGNFRAME
280
     2
  9
$REALWORLDSCALE
290
     1
  9
$INTERFERECOLOR
 62
   256
  9
$CSHADOW
280
     0
  9
$SHADOWPLANELOCATION
 40
0.0
  0
ENDSEC
  0
SECTION
  2
CLASSES
  0
CLASS
  1
ACDBDICTIONARYWDFLT
  2
AcDbDictionaryWithDefault
  3
ObjectDBX Classes
 90
        0
 91
        4
280
     0
281
     0
  0
CLASS
  1
VISUALSTYLE
  2
AcDbVisualStyle
  3
ObjectDBX Classes
 90
     4095
 91
        4
280
     0
281
     0
  0
CLASS
  1
MATERIAL
  2
AcDbMaterial
  3
ObjectDBX Classes
 90
     1153
 91
        4
280
     0
281
     0
  0
CLASS
  1
SUN
  2
AcDbSun
  3
SCENEOE
 90
     1024
 91
        4
280
     0
281
     0
  0
ENDSEC
  0
SECTION
  2
TABLES
  0
TABLE
  2
VPORT
  5
8
330
0
100
AcDbSymbolTable
 70
     1
  0
VPORT
  5
29
330
8
100
AcDbSymbolTableRecord
100
AcDbViewportTableRecord
  2
*Active
 70
     0
 10
0.0
 20
0.0
 11
1.0
 21
1.0
 12
0.0
 22
0.0
 13
0.0
 23
0.0
 14
0.5
 24
0.5
 15
0.5
 25
0.5
 16
0.0
 26
0.0
 36
1.0
 17
6.0
 27
-6.0
 37
0.0
 40
12.0
 41
1.0
 42
50.0
 43
0.0
 44
0.0
 50
0.0
 51
0.0
 71
     0
 72
   100
 73
     1
 74
     3
 75
     0
 76
     0
 77
     0
 78
     0
281
     0
 65
     1
110
0.0
120
0.0
130
0.0
111
1.0
121
0.0
131
0.0
112
0.0
122
1.0
132
0.0
 79
     0
146
0.0
 60
     3
 61
     5
292
     1
282
     1
141
0.0
142
0.0
 63
   250
361
3F
  0
ENDTAB
  0
TABLE
  2
LTYPE
  5
5
330
0
100
AcDbSymbolTable
 70
     1
  0
LTYPE
  5
14
330
5
100
AcDbSymbolTableRecord
100
AcDbLinetypeTableRecord
  2
ByBlock
 70
     0
  3

 72
    65
 73
     0
 40
0.0
  0
LTYPE
  5
15
330
5
100
AcDbSymbolTableRecord
100
AcDbLinetypeTableRecord
  2
ByLayer
 70
     0
  3

 72
    65
 73
     0
 40
0.0
  0
LTYPE
  5
16
330
5
100
AcDbSymbolTableRecord
100
AcDbLinetypeTableRecord
  2
Continuous
 70
     0
  3
Solid line
 72
    65
 73
     0
 40
0.0
  0
ENDTAB
  0
TABLE
  2
LAYER
  5
2
330
0
100
AcDbSymbolTable
 70
     2
  0
LAYER
  5
10
330
2
100
AcDbSymbolTableRecord
100
AcDbLayerTableRecord
  2
0
 70
     0
 62
     7
  6
Continuous
370
    -3
390
F
347
3E
  0
LAYER
  5
40
330
2
100
AcDbSymbolTableRecord
100
AcDbLayerTableRecord
  2
Layer 1
 70
     0
 62
     7
  6
Continuous
370
    -3
390
F
347
3E
  0
ENDTAB
  0
TABLE
  2
STYLE
  5
3
330
0
100
AcDbSymbolTable
 70
     1
  0
STYLE
  5
11
330
3
100
AcDbSymbolTableRecord
100
AcDbTextStyleTableRecord
  2
Standard
 70
     0
 40
0.0
 41
1.0
 50
0.0
 71
     0
 42
0.2
  3
txt
  4

  0
ENDTAB
  0
TABLE
  2
VIEW
  5
6
330
0
100
AcDbSymbolTable
 70
     0
  0
ENDTAB
  0
TABLE
  2
UCS
  5
7
330
0
100
AcDbSymbolTable
 70
     0
  0
ENDTAB
  0
TABLE
  2
APPID
  5
9
330
0
100
AcDbSymbolTable
 70
     1
  0
APPID
  5
12
330
9
100
AcDbSymbolTableRecord
100
AcDbRegAppTableRecord
  2
ACAD
 70
     0
  0
ENDTAB
  0
TABLE
  2
DIMSTYLE
  5
A
330
0
100
AcDbSymbolTable
 70
     1
100
AcDbDimStyleTable
  0
DIMSTYLE
105
27
330
A
100
AcDbSymbolTableRecord
100
AcDbDimStyleTableRecord
  2
Standard
 70
     0
178
     0
340
11
  0
ENDTAB
  0
TABLE
  2
BLOCK_RECORD
  5
1
330
0
100
AcDbSymbolTable
 70
     1
  0
BLOCK_RECORD
  5
1F
330
1
100
AcDbSymbolTableRecord
100
AcDbBlockTableRecord
  2
*Model_Space
340
22
 70
     0
280
     1
281
     0
  0
BLOCK_RECORD
  5
1B
330
1
100
AcDbSymbolTableRecord
100
AcDbBlockTableRecord
  2
*Paper_Space
340
1E
 70
     0
280
     1
281
     0
  0
BLOCK_RECORD
  5
23
330
1
100
AcDbSymbolTableRecord
100
AcDbBlockTableRecord
  2
*Paper_Space0
340
26
 70
     0
280
     1
281
     0
  0
ENDTAB
  0
ENDSEC
  0
SECTION
  2
BLOCKS
  0
BLOCK
  5
20
330
1F
100
AcDbEntity
  8
0
100
AcDbBlockBegin
  2
*Model_Space
 70
     0
 10
0.0
 20
0.0
 30
0.0
  3
*Model_Space
  1

  0
ENDBLK
  5
21
330
1F
100
AcDbEntity
  8
0
100
AcDbBlockEnd
  0
BLOCK
  5
1C
330
1B
100
AcDbEntity
 67
     1
  8
0
100
AcDbBlockBegin
  2
*Paper_Space
 70
     0
 10
0.0
 20
0.0
 30
0.0
  3
*Paper_Space
  1

  0
ENDBLK
  5
1D
330
1B
100
AcDbEntity
 67
     1
  8
0
100
AcDbBlockEnd
  0
BLOCK
  5
24
330
23
100
AcDbEntity
  8
0
100
AcDbBlockBegin
  2
*Paper_Space0
 70
     0
 10
0.0
 20
0.0
 30
0.0
  3
*Paper_Space0
  1

  0
ENDBLK
  5
25
330
23
100
AcDbEntity
  8
0
100
AcDbBlockEnd
  0
ENDSEC
  0
SECTION
  2
ENTITIES
  0
SPLINE
  5
41
330
1F
100
AcDbEntity
  8
Layer 1
370
     0
100
AcDbSpline
210
0.0
220
0.0
230
1.0
 70
    11
 71
     3
 72
    20
 73
    16
 74
     0
 42
0.0000000001
 43
0.0000000001
 12
1.0
 22
0.0
 32
0.0
 13
1.0
 23
0.0
 33
0.0
 40
0.0
 40
0.0
 40
0.0
 40
0.0
 40
1.0
 40
1.0
 40
1.0
 40
2.0
 40
2.0
 40
2.0
 40
3.0
 40
3.0
 40
3.0
 40
4.0
 40
4.0
 40
4.0
 40
5.0
 40
5.0
 40
5.0
 40
5.0
 10
6.49636575395041
 20
-0.7088827667111622
 30
0.0
 10
6.463622961217626
 20
-0.4945677372480632
 30
0.0
 10
6.367718101346806
 20
-0.201580390056304
 30
0.0
 10
6.240790989998206
 20
-0.2567969871772423
 30
0.0
 10
6.057380067013329
 20
-0.3365868690884023
 30
0.0
 10
5.841601789850276
 20
-0.39278538242906
 30
0.0
 10
5.474779943880549
 20
-0.274108292652348
 30
0.0
 10
5.166656034356391
 20
-0.1744210424947141
 30
0.0
 10
5.155399003754862
 20
-0.5238545699524921
 30
0.0
 10
5.070170951264723
 20
-0.8464508043664156
 30
0.0
 10
5.170367537643338
 20
-0.9398448642065078
 30
0.0
 10
5.30559892974889
 20
-1.046215620754765
 30
0.0
 10
5.57188025611875
 20
-1.094063470486693
 30
0.0
 10
5.937574911276543
 20
-1.159773093877675
 30
0.0
 10
6.237382287969719
 20
-0.8893785712217424
 30
0.0
 10
6.49636575395041
 20
-0.7088827667111622
 30
0.0
  0
SPLINE
  5
42
330
1F
100
AcDbEntity
  8
Layer 1
370
     0
100
AcDbSpline
210
0.0
220
0.0
230
1.0
 70
    11
 71
     3
 72
    68
 73
    64
 74
     0
 42
0.0000000001
 43
0.0000000001
 12
1.0
 22
0.0
 32
0.0
 13
1.0
 23
0.0
 33
0.0
 40
0.0
 40
0.0
 40
0.0
 40
0.0
 40
1.0
 40
1.0
 40
1.0
 40
2.0
 40
2.0
 40
2.0
 40
3.0
 40
3.0
 40
3.0
 40
4.0
 40
4.0
 40
4.0
 40
5.0
 40
5.0
 40
5.0
 40
6.0
 40
6.0
 40
6.0
 40
7.0
 40
7.0
 40
7.0
 40
8.0
 40
8.0
 40
8.0
 40
9.0
 40
9.0
 40
9.0
 40
10.0
 40
10.0
 40
10.0
 40
11.0
 40
11.0
 40
11.0
 40
12.0
 40
12.0
 40
12.0
 40
13.0
 40
13.0
 40
13.0
 40
14.0
 40
14.0
 40
14.0
 40
15.0
 40
15.0
 40
15.0
 40
16.0
 40
16.0
 40
16.0
 40
17.0
 40
17.0
 40
17.0
 40
18.0
 40
18.0
 40
18.0
 40
19.0
 40
19.0
 40
19.0
 40
20.0
 40
20.0
 40
20.0
 40
21.0
 40
21.0
 40
21.0
 40
21.0
 10
6.039244371984725
 20
-0.7003028142881299
 30
0.0
 10
6.038124182357907
 20
-0.6978173935536284
 30
0.0
 10
6.035680768734437
 20
-0.6961861174095753
 30
0.0
 10
6.03295730770416
 20
-0.696095102002409
 30
0.0
 10
6.03295730770416
 20
-0.696095102002409
 30
0.0
 10
5.864802842347772
 20
-0.6903611313500985
 30
0.0
 10
5.864802842347772
 20
-0.6903611313500985
 30
0.0
 10
5.864802842347772
 20
-0.6903611313500985
 30
0.0
 10
5.77419350390806
 20
-0.5485871317053402
 30
0.0
 10
5.77419350390806
 20
-0.5485871317053402
 30
0.0
 10
5.772723255022911
 20
-0.5462907429703389
 30
0.0
 10
5.770160821251516
 20
-0.5450795379363423
 30
0.0
 10
5.767360347184447
 20
-0.5453175782320411
 30
0.0
 10
5.764650888524582
 20
-0.5456186291942483
 30
0.0
 10
5.762340497419296
 20
-0.5474319361526593
 30
0.0
 10
5.761409339791953
 20
-0.5500013711091974
 30
0.0
 10
5.761409339791953
 20
-0.5500013711091974
 30
0.0
 10
5.703999621417349
 20
-0.7081581440462388
 30
0.0
 10
5.703999621417349
 20
-0.7081581440462388
 30
0.0
 10
5.703999621417349
 20
-0.7081581440462388
 30
0.0
 10
5.541166056788319
 20
-0.750515314310481
 30
0.0
 10
5.541166056788319
 20
-0.750515314310481
 30
0.0
 10
5.53852660998013
 20
-0.7512014304569068
 30
0.0
 10
5.536503267466665
 20
-0.7533297907478602
 30
0.0
 10
5.535950173838475
 20
-0.7560042434819125
 30
0.0
 10
5.535397080210132
 20
-0.7586716950307719
 30
0.0
 10
5.536412252059436
 20
-0.7614301619868354
 30
0.0
 10
5.538561615905969
 20
-0.7631034452418942
 30
0.0
 10
5.538561615905969
 20
-0.7631034452418942
 30
0.0
 10
5.671234074832783
 20
-0.8665809620196493
 30
0.0
 10
5.671234074832783
 20
-0.8665809620196493
 30
0.0
 10
5.671234074832783
 20
-0.8665809620196493
 30
0.0
 10
5.661201376487497
 20
-1.034539394191395
 30
0.0
 10
5.661201376487497
 20
-1.034539394191395
 30
0.0
 10
5.661040349228743
 20
-1.037262855221595
 30
0.0
 10
5.662433585077097
 20
-1.039846292548469
 30
0.0
 10
5.664806986848892
 20
-1.041197521285817
 30
0.0
 10
5.665906172920131
 20
-1.041820626765735
 30
0.0
 10
5.667131380324589
 20
-1.042135680098277
 30
0.0
 10
5.668356587728895
 20
-1.042135680098277
 30
0.0
 10
5.669763825947484
 20
-1.042135680098277
 30
0.0
 10
5.671164062981107
 20
-1.041722610173388
 30
0.0
 10
5.672368266829986
 20
-1.040903471508778
 30
0.0
 10
5.672368266829986
 20
-1.040903471508778
 30
0.0
 10
5.81178286707321
 20
-0.9467025250781564
 30
0.0
 10
5.81178286707321
 20
-0.9467025250781564
 30
0.0
 10
5.81178286707321
 20
-0.9467025250781564
 30
0.0
 10
5.968413381643737
 20
-1.008137924924212
 30
0.0
 10
5.968413381643737
 20
-1.008137924924212
 30
0.0
 10
5.970947810674311
 20
-1.009125092032845
 30
0.0
 10
5.973825297778199
 20
-1.008607004330442
 30
0.0
 10
5.975855641476806
 20
-1.00676569263136
 30
0.0
 10
5.977878983990422
 20
-1.004931382117421
 30
0.0
 10
5.978677119099453
 20
-1.002109904494874
 30
0.0
 10
5.977920991101402
 20
-0.9994844600569952
 30
0.0
 10
5.977920991101402
 20
-0.9994844600569952
 30
0.0
 10
5.93141211803264
 20
-0.8377920886103108
 30
0.0
 10
5.93141211803264
 20
-0.8377920886103108
 30
0.0
 10
5.93141211803264
 20
-0.8377920886103108
 30
0.0
 10
6.038250203690975
 20
-0.7078080847878583
 30
0.0
 10
6.038250203690975
 20
-0.7078080847878583
 30
0.0
 10
6.039986497612492
 20
-0.705700728052395
 30
0.0
 10
6.040371562796659
 20
-0.7027952362078242
 30
0.0
 10
6.039244371984725
 20
-0.7003028142881299
 30
0.0
  0
SPLINE
  5
43
330
1F
100
AcDbEntity
  8
Layer 1
370
     0
100
AcDbSpline
210
0.0
220
0.0
230
1.0
 70
    11
 71
     3
 72
    35
 73
    31
 74
     0
 42
0.0000000001
 43
0.0000000001
 12
1.0
 22
0.0
 32
0.0
 13
1.0
 23
0.0
 33
0.0
 40
0.0
 40
0.0
 40
0.0
 40
0.0
 40
1.0
 40
1.0
 40
1.0
 40
2.0
 40
2.0
 40
2.0
 40
3.0
 40
3.0
 40
3.0
 40
4.0
 40
4.0
 40
4.0
 40
5.0
 40
5.0
 40
5.0
 40
6.0
 40
6.0
 40
6.0
 40
7.0
 40
7.0
 40
7.0
 40
8.0
 40
8.0
 40
8.0
 40
9.0
 40
9.0
 40
9.0
 40
10.0
 40
10.0
 40
10.0
 40
10.0
 10
6.898912897534299
 20
-0.5654074790705989
 30
0.0
 10
6.774666364956803
 20
-0.5343458459262062
 30
0.0
 10
6.641969401881952
 20
-0.6074093391875723
 30
0.0
 10
6.49636575395041
 20
-0.7088827667110864
 30
0.0
 10
6.237381412821529
 20
-0.8893785712217929
 30
0.0
 10
5.937573160980264
 20
-1.159773093877599
 30
0.0
 10
5.57188025611875
 20
-1.094063470486693
 30
0.0
 10
5.305597179452636
 20
-1.046215620754714
 30
0.0
 10
5.170369287939593
 20
-0.939844864206432
 30
0.0
 10
5.070171826412913
 20
-0.8464508043663903
 30
0.0
 10
4.955401397959728
 20
-0.7394744453011096
 30
0.0
 10
4.886600751317372
 20
-0.6495249685635321
 30
0.0
 10
4.719555973809999
 20
-0.6840845688472856
 30
0.0
 10
4.406680009853188
 20
-0.7488175269073104
 30
0.0
 10
3.867235192093757
 20
-1.352995302726766
 30
0.0
 10
3.726980449630421
 20
-2.194529008395926
 30
0.0
 10
3.642556658286392
 20
-2.7010726316082
 30
0.0
 10
4.077995369787914
 20
-2.883109572003907
 30
0.0
 10
4.438073324144852
 20
-2.947815400471402
 30
0.0
 10
4.438073324144852
 20
-2.947815400471402
 30
0.0
 10
5.896686239601118
 20
-3.087010338530035
 30
0.0
 10
7.147223931875133
 20
-2.990837683326567
 30
0.0
 10
7.147223931875133
 20
-2.990837683326567
 30
0.0
 10
7.147248436023195
 20
-2.990745792771248
 30
0.0
 10
7.147248436023195
 20
-2.990745792771248
 30
0.0
 10
7.224741054051265
 20
-2.993273220616755
 30
0.0
 10
7.420406676524029
 20
-2.936449851499876
 30
0.0
 10
7.729656026563892
 20
-2.431884938245629
 30
0.0
 10
8.139634928203325
 20
-1.762974204366186
 30
0.0
 10
7.244155340521097
 20
-0.6517180898172733
 30
0.0
 10
6.898912897534299
 20
-0.5654074790705989
 30
0.0
  0
SPLINE
  5
44
330
1F
100
AcDbEntity
  8
Layer 1
370
     0
100
AcDbSpline
210
0.0
220
0.0
230
1.0
 70
    11
 71
     3
 72
   395
 73
   391
 74
     0
 42
0.0000000001
 43
0.0000000001
 12
1.0
 22
0.0
 32
0.0
 13
1.0
 23
0.0
 33
0.0
 40
0.0
 40
0.0
 40
0.0
 40
0.0
 40
1.0
 40
1.0
 40
1.0
 40
2.0
 40
2.0
 40
2.0
 40
3.0
 40
3.0
 40
3.0
 40
4.0
 40
4.0
 40
4.0
 40
5.0
 40
5.0
 40
5.0
 40
6.0
 40
6.0
 40
6.0
 40
7.0
 40
7.0
 40
7.0
 40
8.0
 40
8.0
 40
8.0
 40
9.0
 40
9.0
 40
9.0
 40
10.0
 40
10.0
 40
10.0
 40
11.0
 40
11.0
 40
11.0
 40
12.0
 40
12.0
 40
12.0
 40
13.0
 40
13.0
 40
13.0
 40
14.0
 40
14.0
 40
14.0
 40
15.0
 40
15.0
 40
15.0
 40
16.0
 40
16.0
 40
16.0
 40
17.0
 40
17.0
 40
17.0
 40
18.0
 40
18.0
 40
18.0
 40
19.0
 40
19.0
 40
19.0
 40
20.0
 40
20.0
 40
20.0
 40
21.0
 40
21.0
 40
21.0
 40
22.0
 40
22.0
 40
22.0
 40
23.0
 40
23.0
 40
23.0
 40
24.0
 40
24.0
 40
24.0
 40
25.0
 40
25.0
 40
25.0
 40
26.0
 40
26.0
 40
26.0
 40
27.0
 40
27.0
 40
27.0
 40
28.0
 40
28.0
 40
28.0
 40
29.0
 40
29.0
 40
29.0
 40
30.0
 40
30.0
 40
30.0
 40
31.0
 40
31.0
 40
31.0
 40
32.0
 40
32.0
 40
32.0
 40
33.0
 40
33.0
 40
33.0
 40
34.0
 40
34.0
 40
34.0
 40
35.0
 40
35.0
 40
35.0
 40
36.0
 40
36.0
 40
36.0
 40
37.0
 40
37.0
 40
37.0
 40
38.0
 40
38.0
 40
38.0
 40
39.0
 40
39.0
 40
39.0
 40
40.0
 40
40.0
 40
40.0
 40
41.0
 40
41.0
 40
41.0
 40
42.0
 40
42.0
 40
42.0
 40
43.0
 40
43.0
 40
43.0
 40
44.0
 40
44.0
 40
44.0
 40
45.0
 40
45.0
 40
45.0
 40
46.0
 40
46.0
 40
46.0
 40
47.0
 40
47.0
 40
47.0
 40
48.0
 40
48.0
 40
48.0
 40
49.0
 40
49.0
 40
49.0
 40
50.0
 40
50.0
 40
50.0
 40
51.0
 40
51.0
 40
51.0
 40
52.0
 40
52.0
 40
52.0
 40
53.0
 40
53.0
 40
53.0
 40
54.0
 40
54.0
 40
54.0
 40
55.0
 40
55.0
 40
55.0
 40
56.0
 40
56.0
 40
56.0
 40
57.0
 40
57.0
 40
57.0
 40
58.0
 40
58.0
 40
58.0
 40
59.0
 40
59.0
 40
59.0
 40
60.0
 40
60.0
 40
60.0
 40
61.0
 40
61.0
 40
61.0
 40
62.0
 40
62.0
 40
62.0
 40
63.0
 40
63.0
 40
63.0
 40
64.0
 40
64.0
 40
64.0
 40
65.0
 40
65.0
 40
65.0
 40
66.0
 40
66.0
 40
66.0
 40
67.0
 40
67.0
 40
67.0
 40
68.0
 40
68.0
 40
68.0
 40
69.0
 40
69.0
 40
69.0
 40
70.0
 40
70.0
 40
70.0
 40
71.0
 40
71.0
 40
71.0
 40
72.0
 40
72.0
 40
72.0
 40
73.0
 40
73.0
 40
73.0
 40
74.0
 40
74.0
 40
74.0
 40
75.0
 40
75.0
 40
75.0
 40
76.0
 40
76.0
 40
76.0
 40
77.0
 40
77.0
 40
77.0
 40
78.0
 40
78.0
 40
78.0
 40
79.0
 40
79.0
 40
79.0
 40
80.0
 40
80.0
 40
80.0
 40
81.0
 40
81.0
 40
81.0
 40
82.0
 40
82.0
 40
82.0
 40
83.0
 40
83.0
 40
83.0
 40
84.0
 40
84.0
 40
84.0
 40
85.0
 40
85.0
 40
85.0
 40
86.0
 40
86.0
 40
86.0
 40
87.0
 40
87.0
 40
87.0
 40
88.0
 40
88.0
 40
88.0
 40
89.0
 40
89.0
 40
89.0
 40
90.0
 40
90.0
 40
90.0
 40
91.0
 40
91.0
 40
91.0
 40
92.0
 40
92.0
 40
92.0
 40
93.0
 40
93.0
 40
93.0
 40
94.0
 40
94.0
 40
94.0
 40
95.0
 40
95.0
 40
95.0
 40
96.0
 40
96.0
 40
96.0
 40
97.0
 40
97.0
 40
97.0
 40
98.0
 40
98.0
 40
98.0
 40
99.0
 40
99.0
 40
99.0
 40
100.0
 40
100.0
 40
100.0
 40
101.0
 40
101.0
 40
101.0
 40
102.0
 40
102.0
 40
102.0
 40
103.0
 40
103.0
 40
103.0
 40
104.0
 40
104.0
 40
104.0
 40
105.0
 40
105.0
 40
105.0
 40
106.0
 40
106.0
 40
106.0
 40
107.0
 40
107.0
 40
107.0
 40
108.0
 40
108.0
 40
108.0
 40
109.0
 40
109.0
 40
109.0
 40
110.0
 40
110.0
 40
110.0
 40
111.0
 40
111.0
 40
111.0
 40
112.0
 40
112.0
 40
112.0
 40
113.0
 40
113.0
 40
113.0
 40
114.0
 40
114.0
 40
114.0
 40
115.0
 40
115.0
 40
115.0
 40
116.0
 40
116.0
 40
116.0
 40
117.0
 40
117.0
 40
117.0
 40
118.0
 40
118.0
 40
118.0
 40
119.0
 40
119.0
 40
119.0
 40
120.0
 40
120.0
 40
120.0
 40
121.0
 40
121.0
 40
121.0
 40
122.0
 40
122.0
 40
122.0
 40
123.0
 40
123.0
 40
123.0
 40
124.0
 40
124.0
 40
124.0
 40
125.0
 40
125.0
 40
125.0
 40
126.0
 40
126.0
 40
126.0
 40
127.0
 40
127.0
 40
127.0
 40
128.0
 40
128.0
 40
128.0
 40
129.0
 40
129.0
 40
129.0
 40
130.0
 40
130.0
 40
130.0
 40
130.0
 10
9.670336771972643
 20
-6.610660966429653
 30
0.0
 10
9.670336771972643
 20
-6.610660966429653
 30
0.0
 10
9.611816864079174
 20
-6.584406078801167
 30
0.0
 10
9.611816864079174
 20
-6.584406078801167
 30
0.0
 10
9.518296935785
 20
-6.567910696238009
 30
0.0
 10
9.428777884852781
 20
-6.567229498375885
 30
0.0
 10
9.340927490264018
 20
-6.570947316680657
 30
0.0
 10
9.336227781852761
 20
-6.116779523518466
 30
0.0
 10
9.249770409050143
 20
-5.664686878067085
 30
0.0
 10
9.02448880981001
 20
-5.283913978267163
 30
0.0
 10
9.02448880981001
 20
-5.283913978267163
 30
0.0
 10
9.240805325469712
 20
-5.091170249661673
 30
0.0
 10
9.240805325469712
 20
-5.091170249661673
 30
0.0
 10
9.240805325469712
 20
-5.091170249661673
 30
0.0
 10
9.177240469921673
 20
-5.099734410249817
 30
0.0
 10
9.177240469921673
 20
-5.099734410249817
 30
0.0
 10
9.103640474750843
 20
-5.129228235942074
 30
0.0
 10
9.038272393799312
 20
-5.166655139734353
 30
0.0
 10
8.976378050719733
 20
-5.20700358422136
 30
0.0
 10
8.940326535526385
 20
-5.152338847880022
 30
0.0
 10
8.901241184077914
 20
-5.099292652508047
 30
0.0
 10
8.858801814817928
 20
-5.048158265850007
 30
0.0
 10
8.802793244001956
 20
-4.96743167887645
 30
0.0
 10
8.728455439157642
 20
-4.899120711793127
 30
0.0
 10
8.642565112531807
 20
-4.846172891044325
 30
0.0
 10
8.642565112531807
 20
-4.846172891044325
 30
0.0
 10
8.862673691494718
 20
-4.517193302265014
 30
0.0
 10
8.862673691494718
 20
-4.517193302265014
 30
0.0
 10
8.862673691494718
 20
-4.517193302265014
 30
0.0
 10
8.803283260992783
 20
-4.54141573305699
 30
0.0
 10
8.803283260992783
 20
-4.54141573305699
 30
0.0
 10
8.700655327495825
 20
-4.616939601753907
 30
0.0
 10
8.623549112266396
 20
-4.706874424678264
 30
0.0
 10
8.54826746787737
 20
-4.796341504111675
 30
0.0
 10
8.307834320548611
 20
-4.688491363025883
 30
0.0
 10
8.00616018612805
 20
-4.690139601994765
 30
0.0
 10
7.758959607177353
 20
-4.852691601921125
 30
0.0
 10
7.758959607177353
 20
-4.852691601921125
 30
0.0
 10
7.611748480085983
 20
-4.617973463359426
 30
0.0
 10
7.611748480085983
 20
-4.617973463359426
 30
0.0
 10
7.611748480085983
 20
-4.617973463359426
 30
0.0
 10
7.60958609450179
 20
-4.68207659514716
 30
0.0
 10
7.60958609450179
 20
-4.68207659514716
 30
0.0
 10
7.627119978982793
 20
-4.762970233367696
 30
0.0
 10
7.654624966775271
 20
-4.836509904477098
 30
0.0
 10
7.68568536193791
 20
-4.906981401019443
 30
0.0
 10
7.622243938699992
 20
-4.959806717520703
 30
0.0
 10
7.563615447496103
 20
-5.024696846293586
 30
0.0
 10
7.512115404219862
 20
-5.102759893942548
 30
0.0
 10
7.179591544820141
 20
-5.727435038630524
 30
0.0
 10
7.700818348776667
 20
-6.423643383341009
 30
0.0
 10
7.703181195857091
 20
-7.087514318912882
 30
0.0
 10
7.703397434415566
 20
-7.091783406332095
 30
0.0
 10
7.70345126203943
 20
-7.095929989503702
 30
0.0
 10
7.703622953598748
 20
-7.100165666673597
 30
0.0
 10
7.703622953598748
 20
-7.100165666673597
 30
0.0
 10
7.319925728916536
 20
-6.967868503675163
 30
0.0
 10
7.319925728916536
 20
-6.967868503675163
 30
0.0
 10
7.319925728916536
 20
-6.967868503675163
 30
0.0
 10
7.362213823991952
 20
-7.016014529139839
 30
0.0
 10
7.362213823991952
 20
-7.016014529139839
 30
0.0
 10
7.471546080862076
 20
-7.095013063770971
 30
0.0
 10
7.588186829781534
 20
-7.148101950017134
 30
0.0
 10
7.703594183661657
 20
-7.200077161284399
 30
0.0
 10
7.669905515548735
 20
-7.94974004885906
 30
0.0
 10
6.896233651553049
 20
-8.10259750809367
 30
0.0
 10
6.778443961280421
 20
-7.546359546986499
 30
0.0
 10
6.691927192478892
 20
-6.026943075217105
 30
0.0
 10
7.279971710984581
 20
-4.124452108691281
 30
0.0
 10
7.065320139418342
 20
-2.396603940113209
 30
0.0
 10
7.042476809475273
 20
-2.035402021943178
 30
0.0
 10
6.826774671179034
 20
-1.690645370962127
 30
0.0
 10
6.522307068686258
 20
-1.492097539591542
 30
0.0
 10
6.522307068686258
 20
-1.492097539591542
 30
0.0
 10
6.655965699346375
 20
-1.326059736981051
 30
0.0
 10
6.655965699346375
 20
-1.326059736981051
 30
0.0
 10
6.655965699346375
 20
-1.326059736981051
 30
0.0
 10
6.720452120939449
 20
-1.280126212474645
 30
0.0
 10
6.720452120939449
 20
-1.280126212474645
 30
0.0
 10
6.720452120939449
 20
-1.280126212474645
 30
0.0
 10
6.54259637067763
 20
-1.334198844952273
 30
0.0
 10
6.54259637067763
 20
-1.334198844952273
 30
0.0
 10
6.54259637067763
 20
-1.334198844952273
 30
0.0
 10
6.439751270559731
 20
-1.443110689517779
 30
0.0
 10
6.439751270559731
 20
-1.443110689517779
 30
0.0
 10
6.365961022579995
 20
-1.403421169393217
 30
0.0
 10
6.287950874492632
 20
-1.372093492235636
 30
0.0
 10
6.206943084586934
 20
-1.350848285887423
 30
0.0
 10
6.206943084586934
 20
-1.350848285887423
 30
0.0
 10
6.250846936444153
 20
-1.115727368208329
 30
0.0
 10
6.250846936444153
 20
-1.115727368208329
 30
0.0
 10
6.250846936444153
 20
-1.115727368208329
 30
0.0
 10
6.290111403951818
 20
-1.02460833755625
 30
0.0
 10
6.290111403951818
 20
-1.02460833755625
 30
0.0
 10
6.290111403951818
 20
-1.02460833755625
 30
0.0
 10
6.172318929491515
 20
-1.073671288753505
 30
0.0
 10
6.172318929491515
 20
-1.073671288753505
 30
0.0
 10
6.172318929491515
 20
-1.073671288753505
 30
0.0
 10
6.111395339768604
 20
-1.330842971015601
 30
0.0
 10
6.111395339768604
 20
-1.330842971015601
 30
0.0
 10
6.010832345295133
 20
-1.314835749318339
 30
0.0
 10
5.906678677077076
 20
-1.31431232207827
 30
0.0
 10
5.80116261313487
 20
-1.332305597488079
 30
0.0
 10
5.522776350586254
 20
-1.401850887672986
 30
0.0
 10
5.31040966885194
 20
-1.535196761276577
 30
0.0
 10
5.160532218248464
 20
-1.728430506872706
 30
0.0
 10
5.160532218248464
 20
-1.728430506872706
 30
0.0
 10
4.842171520393347
 20
-1.435346518789578
 30
0.0
 10
4.842171520393347
 20
-1.435346518789578
 30
0.0
 10
4.842171520393347
 20
-1.435346518789578
 30
0.0
 10
4.778429404911119
 20
-1.437414242000563
 30
0.0
 10
4.778429404911119
 20
-1.437414242000563
 30
0.0
 10
4.778429404911119
 20
-1.437414242000563
 30
0.0
 10
4.804271304735013
 20
-1.495221397907421
 30
0.0
 10
4.804271304735013
 20
-1.495221397907421
 30
0.0
 10
4.804271304735013
 20
-1.495221397907421
 30
0.0
 10
5.103646628386539
 20
-1.809155237721244
 30
0.0
 10
5.103646628386539
 20
-1.809155237721244
 30
0.0
 10
4.96748130096138
 20
-2.023181295174203
 30
0.0
 10
4.896396355118061
 20
-2.299504474824213
 30
0.0
 10
4.887414566412922
 20
-2.634711362860773
 30
0.0
 10
4.887414566412922
 20
-2.634711362860773
 30
0.0
 10
4.603370834971378
 20
-2.566372553902991
 30
0.0
 10
4.603370834971378
 20
-2.566372553902991
 30
0.0
 10
4.603370834971378
 20
-2.566372553902991
 30
0.0
 10
4.541870918446673
 20
-2.612456424531628
 30
0.0
 10
4.541870918446673
 20
-2.612456424531628
 30
0.0
 10
4.541870918446673
 20
-2.612456424531628
 30
0.0
 10
4.59167167931749
 20
-2.658532870660388
 30
0.0
 10
4.59167167931749
 20
-2.658532870660388
 30
0.0
 10
4.59167167931749
 20
-2.658532870660388
 30
0.0
 10
4.887011787295402
 20
-2.756209590813417
 30
0.0
 10
4.887011787295402
 20
-2.756209590813417
 30
0.0
 10
4.887598322784318
 20
-2.792615625874987
 30
0.0
 10
4.888614551202636
 20
-2.829426296178983
 30
0.0
 10
4.890537496666234
 20
-2.867094496216648
 30
0.0
 10
4.891182500091518
 20
-2.886264554854203
 30
0.0
 10
4.89202889307555
 20
-2.905423476741968
 30
0.0
 10
4.892712875125148
 20
-2.924589823129458
 30
0.0
 10
4.892712875125148
 20
-2.924589823129458
 30
0.0
 10
4.482752410252083
 20
-2.913456785590041
 30
0.0
 10
4.482752410252083
 20
-2.913456785590041
 30
0.0
 10
4.482752410252083
 20
-2.913456785590041
 30
0.0
 10
4.420980571420134
 20
-2.960958735691797
 30
0.0
 10
4.420980571420134
 20
-2.960958735691797
 30
0.0
 10
4.420980571420134
 20
-2.960958735691797
 30
0.0
 10
4.481140365720143
 20
-2.990133307890144
 30
0.0
 10
4.481140365720143
 20
-2.990133307890144
 30
0.0
 10
4.481140365720143
 20
-2.990133307890144
 30
0.0
 10
4.896627442676112
 20
-3.02805950929807
 30
0.0
 10
4.896627442676112
 20
-3.02805950929807
 30
0.0
 10
4.899413486248477
 20
-3.09913610257897
 30
0.0
 10
4.90245196281598
 20
-3.17020341523524
 30
0.0
 10
4.905719670816678
 20
-3.241263303391532
 30
0.0
 10
4.905719670816678
 20
-3.241263303391532
 30
0.0
 10
4.747954617174855
 20
-3.246853951785877
 30
0.0
 10
4.747954617174855
 20
-3.246853951785877
 30
0.0
 10
4.747954617174855
 20
-3.246853951785877
 30
0.0
 10
4.659497269722502
 20
-3.238479115944225
 30
0.0
 10
4.659497269722502
 20
-3.238479115944225
 30
0.0
 10
4.659497269722502
 20
-3.238479115944225
 30
0.0
 10
4.731085225431394
 20
-3.292143400929515
 30
0.0
 10
4.731085225431394
 20
-3.292143400929515
 30
0.0
 10
4.731085225431394
 20
-3.292143400929515
 30
0.0
 10
4.907982287148873
 20
-3.290851537953889
 30
0.0
 10
4.907982287148873
 20
-3.290851537953889
 30
0.0
 10
4.962552361117079
 20
-4.440717241461041
 30
0.0
 10
5.075362068109016
 20
-5.58847253088326
 30
0.0
 10
5.147831683176112
 20
-6.737582791529676
 30
0.0
 10
5.162942396515417
 20
-7.238112874065109
 30
0.0
 10
4.728520060729857
 20
-7.232021071930376
 30
0.0
 10
4.495618140446393
 20
-7.000777599302864
 30
0.0
 10
4.495618140446393
 20
-7.000777599302864
 30
0.0
 10
4.756783275570418
 20
-6.769478442926507
 30
0.0
 10
4.756783275570418
 20
-6.769478442926507
 30
0.0
 10
4.756783275570418
 20
-6.769478442926507
 30
0.0
 10
4.694069453318762
 20
-6.782634656677828
 30
0.0
 10
4.694069453318762
 20
-6.782634656677828
 30
0.0
 10
4.600936527079865
 20
-6.825477733117648
 30
0.0
 10
4.518815062195143
 20
-6.879394451098126
 30
0.0
 10
4.439959449186264
 20
-6.935687009033725
 30
0.0
 10
4.426824580872209
 20
-6.917433876128901
 30
0.0
 10
4.414839581973764
 20
-6.8982860909909
 30
0.0
 10
4.404300504423064
 20
-6.878264070994494
 30
0.0
 10
4.220670349395277
 20
-6.522207331227238
 30
0.0
 10
4.272979663156244
 20
-5.902630961817774
 30
0.0
 10
4.380608925370981
 20
-5.367944467678222
 30
0.0
 10
4.380608925370981
 20
-5.367944467678222
 30
0.0
 10
4.707927282306804
 20
-5.321248075811101
 30
0.0
 10
4.707927282306804
 20
-5.321248075811101
 30
0.0
 10
4.707927282306804
 20
-5.321248075811101
 30
0.0
 10
4.648331749996234
 20
-5.297697562256543
 30
0.0
 10
4.648331749996234
 20
-5.297697562256543
 30
0.0
 10
4.563050232358743
 20
-5.284637867003337
 30
0.0
 10
4.479949661555136
 20
-5.282397524170745
 30
0.0
 10
4.398046291353745
 20
-5.284134857137915
 30
0.0
 10
4.405158034156809
 20
-5.251099545012569
 30
0.0
 10
4.412425691456948
 20
-5.218415040505684
 30
0.0
 10
4.419855759691396
 20
-5.186285517363154
 30
0.0
 10
4.451537028654861
 20
-5.04843297234485
 30
0.0
 10
4.448856784205569
 20
-4.902031115738105
 30
0.0
 10
4.417055795181946
 20
-4.762762347371614
 30
0.0
 10
4.417055795181946
 20
-4.762762347371614
 30
0.0
 10
4.622349712737509
 20
-4.689334043760002
 30
0.0
 10
4.622349712737509
 20
-4.689334043760002
 30
0.0
 10
4.622349712737509
 20
-4.689334043760002
 30
0.0
 10
4.664072617760969
 20
-4.653926603929449
 30
0.0
 10
4.664072617760969
 20
-4.653926603929449
 30
0.0
 10
4.664072617760969
 20
-4.653926603929449
 30
0.0
 10
4.605403291807912
 20
-4.628954298651706
 30
0.0
 10
4.605403291807912
 20
-4.628954298651706
 30
0.0
 10
4.605403291807912
 20
-4.628954298651706
 30
0.0
 10
4.397202682557236
 20
-4.688751220521024
 30
0.0
 10
4.397202682557236
 20
-4.688751220521024
 30
0.0
 10
4.312358282349022
 20
-4.414154237088395
 30
0.0
 10
4.112638308063045
 20
-4.180121008638758
 30
0.0
 10
3.839929931782232
 20
-4.115212318616082
 30
0.0
 10
3.839929931782232
 20
-4.115212318616082
 30
0.0
 10
3.869903565777905
 20
-3.950603732228627
 30
0.0
 10
3.869903565777905
 20
-3.950603732228627
 30
0.0
 10
3.869903565777905
 20
-3.950603732228627
 30
0.0
 10
3.860106938213196
 20
-3.896764971496698
 30
0.0
 10
3.860106938213196
 20
-3.896764971496698
 30
0.0
 10
3.860106938213196
 20
-3.896764971496698
 30
0.0
 10
3.809143315051794
 20
-3.935090239771928
 30
0.0
 10
3.809143315051794
 20
-3.935090239771928
 30
0.0
 10
3.809143315051794
 20
-3.935090239771928
 30
0.0
 10
3.76754384233848
 20
-4.102245429611255
 30
0.0
 10
3.76754384233848
 20
-4.102245429611255
 30
0.0
 10
3.702819836749869
 20
-4.094373603635151
 30
0.0
 10
3.634559913103051
 20
-4.095693308485124
 30
0.0
 10
3.563174275015424
 20
-4.107928884253775
 30
0.0
 10
3.477451927698894
 20
-4.120951457007473
 30
0.0
 10
3.397732288518758
 20
-4.144795238306616
 30
0.0
 10
3.32412672497306
 20
-4.177709902309263
 30
0.0
 10
3.32412672497306
 20
-4.177709902309263
 30
0.0
 10
3.161355702300827
 20
-3.927736272660973
 30
0.0
 10
3.161355702300827
 20
-3.927736272660973
 30
0.0
 10
3.161355702300827
 20
-3.927736272660973
 30
0.0
 10
3.100659487886105
 20
-3.908191276780674
 30
0.0
 10
3.100659487886105
 20
-3.908191276780674
 30
0.0
 10
3.100659487886105
 20
-3.908191276780674
 30
0.0
 10
3.109012050228203
 20
-3.96227318988306
 30
0.0
 10
3.109012050228203
 20
-3.96227318988306
 30
0.0
 10
3.109012050228203
 20
-3.96227318988306
 30
0.0
 10
3.251130898478348
 20
-4.214333103991824
 30
0.0
 10
3.251130898478348
 20
-4.214333103991824
 30
0.0
 10
3.013601658657232
 20
-4.348007511714084
 30
0.0
 10
2.850466835491943
 20
-4.584195701248114
 30
0.0
 10
2.774323949119308
 20
-4.86475641419295
 30
0.0
 10
2.701772664553623
 20
-4.860791731267985
 30
0.0
 10
2.6292102432382
 20
-4.86201120536988
 30
0.0
 10
2.557868224087214
 20
-4.879445787165145
 30
0.0
 10
2.557868224087214
 20
-4.879445787165145
 30
0.0
 10
2.515359250141096
 20
-4.909407356348614
 30
0.0
 10
2.515359250141096
 20
-4.909407356348614
 30
0.0
 10
2.515359250141096
 20
-4.909407356348614
 30
0.0
 10
2.751602195361379
 20
-4.962787654214202
 30
0.0
 10
2.751602195361379
 20
-4.962787654214202
 30
0.0
 10
2.734990804988052
 20
-5.048772643213422
 30
0.0
 10
2.726007160157931
 20
-5.138007707026014
 30
0.0
 10
2.725313897483475
 20
-5.229121169303122
 30
0.0
 10
2.713389222646533
 20
-5.418096964229814
 30
0.0
 10
2.706958677705542
 20
-5.612552040052858
 30
0.0
 10
2.710192975456948
 20
-5.807731004612227
 30
0.0
 10
2.59766539945973
 20
-5.798687963783221
 30
0.0
 10
2.483436684932081
 20
-5.787605041617856
 30
0.0
 10
2.372172201973474
 20
-5.812367604774636
 30
0.0
 10
2.372172201973474
 20
-5.812367604774636
 30
0.0
 10
2.329663228027357
 20
-5.839658210133494
 30
0.0
 10
2.329663228027357
 20
-5.839658210133494
 30
0.0
 10
2.329663228027357
 20
-5.839658210133494
 30
0.0
 10
2.713085746214726
 20
-5.918563938516424
 30
0.0
 10
2.713085746214726
 20
-5.918563938516424
 30
0.0
 10
2.713952556573329
 20
-5.942552497562852
 30
0.0
 10
2.71499662686612
 20
-5.96653363210943
 30
0.0
 10
2.716190115218473
 20
-5.990507342156156
 30
0.0
 10
2.656538899159032
 20
-5.989182068931237
 30
0.0
 10
2.597025964409315
 20
-5.992222401623646
 30
0.0
 10
2.538340861394014
 20
-6.005285809126765
 30
0.0
 10
2.538340861394014
 20
-6.005285809126765
 30
0.0
 10
2.49583188744777
 20
-6.032574558360592
 30
0.0
 10
2.49583188744777
 20
-6.032574558360592
 30
0.0
 10
2.49583188744777
 20
-6.032574558360592
 30
0.0
 10
2.721360351308198
 20
-6.078986963108011
 30
0.0
 10
2.721360351308198
 20
-6.078986963108011
 30
0.0
 10
2.751735836358876
 20
-6.529087986472177
 30
0.0
 10
2.844449278355822
 20
-6.971319039984968
 30
0.0
 10
3.052156158365708
 20
-7.347108244254236
 30
0.0
 10
2.994384268833199
 20
-7.371468028293621
 30
0.0
 10
2.935930253375975
 20
-7.39391414749414
 30
0.0
 10
2.875398306020543
 20
-7.410558020054471
 30
0.0
 10
2.875398306020543
 20
-7.410558020054471
 30
0.0
 10
2.840299910996792
 20
-7.499510952872393
 30
0.0
 10
2.840299910996792
 20
-7.499510952872393
 30
0.0
 10
2.865359454147791
 20
-7.496589412177627
 30
0.0
 10
2.89050159485987
 20
-7.494096636349745
 30
0.0
 10
2.915182488518187
 20
-7.489231732816759
 30
0.0
 10
2.977589122088198
 20
-7.472610133756107
 30
0.0
 10
3.038175825130009
 20
-7.450436864925374
 30
0.0
 10
3.09767391088
 20
-7.425317925775339
 30
0.0
 10
3.14513131398265
 20
-7.502851977809238
 30
0.0
 10
3.197948277921518
 20
-7.577199063278435
 30
0.0
 10
3.25654521500097
 20
-7.647848747817508
 30
0.0
 10
3.194157142680701
 20
-7.70145549292882
 30
0.0
 10
3.131098081185554
 20
-7.754299370679645
 30
0.0
 10
3.062893841287632
 20
-7.801394829414094
 30
0.0
 10
3.062893841287632
 20
-7.801394829414094
 30
0.0
 10
3.047927905695688
 20
-7.878206848836574
 30
0.0
 10
3.047927905695688
 20
-7.878206848836574
 30
0.0
 10
3.069943403904441
 20
-7.866336929686061
 30
0.0
 10
3.092110176297764
 20
-7.854726868030689
 30
0.0
 10
3.113422203144713
 20
-7.841626338028365
 30
0.0
 10
3.178509081164015
 20
-7.797235253367691
 30
0.0
 10
3.239581160884174
 20
-7.748012675423499
 30
0.0
 10
3.298697812953883
 20
-7.696765065142472
 30
0.0
 10
3.373772499409319
 20
-7.781060980423641
 30
0.0
 10
3.45761830438639
 20
-7.859667872687143
 30
0.0
 10
3.551387881488204
 20
-7.931412670955524
 30
0.0
 10
4.259659182345558
 20
-8.405905032483462
 30
0.0
 10
4.70909942522207
 20
-8.001822915374229
 30
0.0
 10
4.965548146810407
 20
-8.537615659992827
 30
0.0
 10
4.978842641871526
 20
-8.728822517127405
 30
0.0
 10
4.988144612133206
 20
-8.920296656256797
 30
0.0
 10
4.994624344385556
 20
-9.111952695632706
 30
0.0
 10
4.994624344385556
 20
-9.111952695632706
 30
0.0
 10
4.827446881046803
 20
-9.054308878722724
 30
0.0
 10
4.827446881046803
 20
-9.054308878722724
 30
0.0
 10
4.827446881046803
 20
-9.054308878722724
 30
0.0
 10
4.869734048059727
 20
-9.102453048062367
 30
0.0
 10
4.869734048059727
 20
-9.102453048062367
 30
0.0
 10
4.911151620526526
 20
-9.132381206996543
 30
0.0
 10
4.953629040348333
 20
-9.158548856751647
 30
0.0
 10
4.996680002784311
 20
-9.182388925800852
 30
0.0
 10
5.000018243533607
 20
-9.292601913966841
 30
0.0
 10
5.002623314921948
 20
-9.402863161381976
 30
0.0
 10
5.004407979075697
 20
-9.513176380295993
 30
0.0
 10
5.004407979075697
 20
-9.513176380295993
 30
0.0
 10
4.664072617760969
 20
-9.395832160014834
 30
0.0
 10
4.664072617760969
 20
-9.395832160014834
 30
0.0
 10
4.664072617760969
 20
-9.395832160014834
 30
0.0
 10
4.706359784773895
 20
-9.443976329354477
 30
0.0
 10
4.706359784773895
 20
-9.443976329354477
 30
0.0
 10
4.802426316519864
 20
-9.513389834667047
 30
0.0
 10
4.904137324284167
 20
-9.562790600607816
 30
0.0
 10
5.005695201738742
 20
-9.609019248983714
 30
0.0
 10
5.014268642951669
 20
-10.27634814536519
 30
0.0
 10
5.00425023919153
 20
-11.08317596960898
 30
0.0
 10
5.017680231375
 20
-11.75
 30
0.0
 10
5.017680231375
 20
-11.75
 30
0.0
 10
6.300661618252231
 20
-11.70406090711865
 30
0.0
 10
6.943826551778202
 20
-11.75
 30
0.0
 10
6.939892494915006
 20
-11.19935083116211
 30
0.0
 10
6.929224416679315
 20
-10.64820422083375
 30
0.0
 10
6.924263922710552
 20
-10.09756247649587
 30
0.0
 10
6.924263922710552
 20
-10.09756247649587
 30
0.0
 10
7.245108115768744
 20
-10.04178220905058
 30
0.0
 10
7.245108115768744
 20
-10.04178220905058
 30
0.0
 10
7.245108115768744
 20
-10.04178220905058
 30
0.0
 10
7.18658913593779
 20
-10.01552546529706
 30
0.0
 10
7.18658913593779
 20
-10.01552546529706
 30
0.0
 10
7.095791214904718
 20
-9.99951081909997
 30
0.0
 10
7.008755659175423
 20
-9.998382295121246
 30
0.0
 10
6.923363702102632
 20
-10.00173074455794
 30
0.0
 10
6.922768814051373
 20
-9.924527082767831
 30
0.0
 10
6.922423574807908
 20
-9.847341982227363
 30
0.0
 10
6.922121954501108
 20
-9.770162450061687
 30
0.0
 10
7.042125073794447
 20
-9.716113947208617
 30
0.0
 10
7.163838612242923
 20
-9.661954076857732
 30
0.0
 10
7.277638561903611
 20
-9.579727740912604
 30
0.0
 10
7.277638561903611
 20
-9.579727740912604
 30
0.0
 10
7.319925728916536
 20
-9.53158357157296
 30
0.0
 10
7.319925728916536
 20
-9.53158357157296
 30
0.0
 10
7.319925728916536
 20
-9.53158357157296
 30
0.0
 10
6.921745161133205
 20
-9.668873710726908
 30
0.0
 10
6.921745161133205
 20
-9.668873710726908
 30
0.0
 10
6.921569757324025
 20
-9.578918470427904
 30
0.0
 10
6.921568829261534
 20
-9.48897622300357
 30
0.0
 10
6.921936342004578
 20
-9.39906738582868
 30
0.0
 10
7.004603507628897
 20
-8.620385840552848
 30
0.0
 10
7.660288932105686
 20
-8.747261262528758
 30
0.0
 10
7.995762174074722
 20
-8.819497933912796
 30
0.0
 10
8.584679999376375
 20
-8.897540564187112
 30
0.0
 10
8.963253391092923
 20
-8.38360183490517
 30
0.0
 10
9.14861345458793
 20
-7.938109569828915
 30
0.0
 10
9.251832563886106
 20
-7.56199739981581
 30
0.0
 10
9.334135929017368
 20
-7.116382630491974
 30
0.0
 10
9.340709395580562
 20
-6.667966968596096
 30
0.0
 10
9.340709395580562
 20
-6.667966968596096
 30
0.0
 10
9.670336771972643
 20
-6.610660966429653
 30
0.0
 10
9.670336771972643
 20
-6.610660966429653
 30
0.0
  0
SPLINE
  5
45
330
1F
100
AcDbEntity
  8
Layer 1
370
     0
100
AcDbSpline
210
0.0
220
0.0
230
1.0
 70
    11
 71
     3
 72
    59
 73
    55
 74
     0
 42
0.0000000001
 43
0.0000000001
 12
1.0
 22
0.0
 32
0.0
 13
1.0
 23
0.0
 33
0.0
 40
0.0
 40
0.0
 40
0.0
 40
0.0
 40
1.0
 40
1.0
 40
1.0
 40
2.0
 40
2.0
 40
2.0
 40
3.0
 40
3.0
 40
3.0
 40
4.0
 40
4.0
 40
4.0
 40
5.0
 40
5.0
 40
5.0
 40
6.0
 40
6.0
 40
6.0
 40
7.0
 40
7.0
 40
7.0
 40
8.0
 40
8.0
 40
8.0
 40
9.0
 40
9.0
 40
9.0
 40
10.0
 40
10.0
 40
10.0
 40
11.0
 40
11.0
 40
11.0
 40
12.0
 40
12.0
 40
12.0
 40
13.0
 40
13.0
 40
13.0
 40
14.0
 40
14.0
 40
14.0
 40
15.0
 40
15.0
 40
15.0
 40
16.0
 40
16.0
 40
16.0
 40
17.0
 40
17.0
 40
17.0
 40
18.0
 40
18.0
 40
18.0
 40
18.0
 10
6.0
 20
-4.906922535046406
 30
0.0
 10
6.0
 20
-4.906922535046406
 30
0.0
 10
6.038186724556403
 20
-4.909456647092459
 30
0.0
 10
6.071294159029169
 20
-4.970563051976796
 30
0.0
 10
6.071294159029169
 20
-4.970563051976796
 30
0.0
 10
6.297899508306247
 20
-5.362667345646918
 30
0.0
 10
6.842769814186946
 20
-5.362667345646918
 30
0.0
 10
7.387630764274995
 20
-5.362667345646918
 30
0.0
 10
7.710994426747068
 20
-5.097865211821196
 30
0.0
 10
7.710994426747068
 20
-4.784708719278746
 30
0.0
 10
7.710994426747068
 20
-4.784708719278746
 30
0.0
 10
7.713715654648897
 20
-4.490061636273771
 30
0.0
 10
7.484192907621238
 20
-4.413550367200211
 30
0.0
 10
7.484192907621238
 20
-4.413550367200211
 30
0.0
 10
7.700806672602488
 20
-4.89163537083348
 30
0.0
 10
7.351988513556661
 20
-4.89163537083348
 30
0.0
 10
7.303614135455417
 20
-4.896724720909333
 30
0.0
 10
7.204310845422772
 20
-4.855993824314788
 30
0.0
 10
7.120284760210703
 20
-4.713404500257462
 30
0.0
 10
7.036267728991535
 20
-4.570836329952246
 30
0.0
 10
6.891144292888182
 20
-4.188909740082914
 30
0.0
 10
6.557593178070975
 20
-4.188909740082914
 30
0.0
 10
6.36663943530473
 20
-4.188909740082914
 30
0.0
 10
6.231694699353056
 20
-4.260194843318181
 30
0.0
 10
6.134945741950964
 20
-4.354408680294985
 30
0.0
 10
6.099293129440563
 20
-4.397693807826777
 30
0.0
 10
6.028009030403887
 20
-4.458801217166561
 30
0.0
 10
6.0
 20
-4.458801217166561
 30
0.0
 10
5.971990969596239
 20
-4.458801217166561
 30
0.0
 10
5.900706870559437
 20
-4.397693807826777
 30
0.0
 10
5.865055264048477
 20
-4.354408680294985
 30
0.0
 10
5.768306306646259
 20
-4.260194843318181
 30
0.0
 10
5.633360564695269
 20
-4.188909740082914
 30
0.0
 10
5.442407827928339
 20
-4.188909740082914
 30
0.0
 10
5.108855707111943
 20
-4.188909740082914
 30
0.0
 10
4.963732271008616
 20
-4.570836329952246
 30
0.0
 10
4.879716245788737
 20
-4.713404500257462
 30
0.0
 10
4.795689154577354
 20
-4.855993824314788
 30
0.0
 10
4.696396025136664
 20
-4.896724720909333
 30
0.0
 10
4.648011486443465
 20
-4.89163537083348
 30
0.0
 10
4.299193327397638
 20
-4.89163537083348
 30
0.0
 10
4.515807092378887
 20
-4.413550367200211
 30
0.0
 10
4.515807092378887
 20
-4.413550367200211
 30
0.0
 10
4.286284345351103
 20
-4.490061636273771
 30
0.0
 10
4.289005573252931
 20
-4.784708719278746
 30
0.0
 10
4.289005573252931
 20
-4.784708719278746
 30
0.0
 10
4.289005573252931
 20
-5.097865211821196
 30
0.0
 10
4.61236993992457
 20
-5.362667345646918
 30
0.0
 10
5.157230185813053
 20
-5.362667345646918
 30
0.0
 10
5.702100491693752
 20
-5.362667345646918
 30
0.0
 10
5.928705840970957
 20
-4.970563051976796
 30
0.0
 10
5.928705840970957
 20
-4.970563051976796
 30
0.0
 10
5.961813275443748
 20
-4.909456647092459
 30
0.0
 10
6.0
 20
-4.906922535046406
 30
0.0
 10
6.0
 20
-4.906922535046406
 30
0.0
  0
SPLINE
  5
46
330
1F
100
AcDbEntity
  8
Layer 1
370
     0
100
AcDbSpline
210
0.0
220
0.0
230
1.0
 70
    11
 71
     3
 72
    59
 73
    55
 74
     0
 42
0.0000000001
 43
0.0000000001
 12
1.0
 22
0.0
 32
0.0
 13
1.0
 23
0.0
 33
0.0
 40
0.0
 40
0.0
 40
0.0
 40
0.0
 40
1.0
 40
1.0
 40
1.0
 40
2.0
 40
2.0
 40
2.0
 40
3.0
 40
3.0
 40
3.0
 40
4.0
 40
4.0
 40
4.0
 40
5.0
 40
5.0
 40
5.0
 40
6.0
 40
6.0
 40
6.0
 40
7.0
 40
7.0
 40
7.0
 40
8.0
 40
8.0
 40
8.0
 40
9.0
 40
9.0
 40
9.0
 40
10.0
 40
10.0
 40
10.0
 40
11.0
 40
11.0
 40
11.0
 40
12.0
 40
12.0
 40
12.0
 40
13.0
 40
13.0
 40
13.0
 40
14.0
 40
14.0
 40
14.0
 40
15.0
 40
15.0
 40
15.0
 40
16.0
 40
16.0
 40
16.0
 40
17.0
 40
17.0
 40
17.0
 40
18.0
 40
18.0
 40
18.0
 40
18.0
 10
7.225425038629029
 20
-3.267188787721402
 30
0.0
 10
7.225425038629029
 20
-3.281751083186716
 30
0.0
 10
7.210868449839431
 20
-3.320577593751194
 30
0.0
 10
7.19630672504152
 20
-3.335134182540666
 30
0.0
 10
7.181744429576105
 20
-3.349690771330289
 30
0.0
 10
7.172041939275005
 20
-3.383663183406219
 30
0.0
 10
7.167187840786532
 20
-3.432197890947464
 30
0.0
 10
7.162339448973903
 20
-3.48073259848886
 30
0.0
 10
7.116228937338898
 20
-3.785264790540143
 30
0.0
 10
6.7437513504682
 20
-3.785264790540143
 30
0.0
 10
6.638194396375562
 20
-3.785264790540143
 30
0.0
 10
6.368843861015421
 20
-3.728236837312907
 30
0.0
 10
6.237807740532642
 20
-3.502561204329721
 30
0.0
 10
6.108159483619728
 20
-3.279287511216984
 30
0.0
 10
6.075875106263892
 20
-3.212819574778324
 30
0.0
 10
5.999999714666248
 20
-3.211443124560371
 30
0.0
 10
5.924124323068605
 20
-3.212819574778324
 30
0.0
 10
5.891834809704455
 20
-3.279287511216984
 30
0.0
 10
5.762192259467358
 20
-3.502561204329721
 30
0.0
 10
5.63115613898473
 20
-3.728236837312907
 30
0.0
 10
5.361805032956959
 20
-3.785264790540143
 30
0.0
 10
5.256248649531799
 20
-3.785264790540143
 30
0.0
 10
4.883771062661102
 20
-3.785264790540143
 30
0.0
 10
4.837660551026096
 20
-3.48073259848886
 30
0.0
 10
4.832812159213467
 20
-3.432197890947464
 30
0.0
 10
4.827958060724995
 20
-3.383663183406219
 30
0.0
 10
4.818255570423895
 20
-3.349695907338577
 30
0.0
 10
4.803693274958479
 20
-3.335134182540666
 30
0.0
 10
4.789136686168882
 20
-3.320577593751194
 30
0.0
 10
4.774574961371096
 20
-3.281756789862685
 30
0.0
 10
4.774574961371096
 20
-3.26719449439722
 30
0.0
 10
4.774574961371096
 20
-3.252632198931779
 30
0.0
 10
4.791561452742775
 20
-3.208957296554748
 30
0.0
 10
4.808541666771109
 20
-3.196819767663176
 30
0.0
 10
4.825528158142788
 20
-3.184687374779918
 30
0.0
 10
4.864354668707215
 20
-3.136158373914491
 30
0.0
 10
4.881341160078894
 20
-3.109464256233448
 30
0.0
 10
4.956564278625541
 20
-2.973574037262172
 30
0.0
 10
5.068190282497779
 20
-2.92746923230311
 30
0.0
 10
5.27687942410916
 20
-2.915336839419827
 30
0.0
 10
5.485563429712354
 20
-2.903198739860727
 30
0.0
 10
5.999999714666248
 20
-2.900774543954362
 30
0.0
 10
5.999999714666248
 20
-2.900774543954362
 30
0.0
 10
5.999999714666248
 20
-2.900774543954362
 30
0.0
 10
6.514442276963463
 20
-2.903198739860727
 30
0.0
 10
6.723120575890839
 20
-2.91533113274401
 30
0.0
 10
6.93180971750222
 20
-2.92746923230311
 30
0.0
 10
7.043435721374458
 20
-2.973574037262172
 30
0.0
 10
7.118658839921105
 20
-3.109464256233448
 30
0.0
 10
7.135645331292785
 20
-3.136158373914491
 30
0.0
 10
7.174477548533054
 20
-3.184687374779918
 30
0.0
 10
7.191457762561387
 20
-3.196819767663176
 30
0.0
 10
7.208438547257224
 20
-3.20895216054646
 30
0.0
 10
7.225425038629029
 20
-3.252632198931779
 30
0.0
 10
7.225425038629029
 20
-3.267188787721402
 30
0.0
  0
SPLINE
  5
47
330
1F
100
AcDbEntity
  8
Layer 1
370
     0
100
AcDbSpline
210
0.0
220
0.0
230
1.0
 70
    11
 71
     3
 72
    29
 73
    25
 74
     0
 42
0.0000000001
 43
0.0000000001
 12
1.0
 22
0.0
 32
0.0
 13
1.0
 23
0.0
 33
0.0
 40
0.0
 40
0.0
 40
0.0
 40
0.0
 40
1.0
 40
1.0
 40
1.0
 40
2.0
 40
2.0
 40
2.0
 40
3.0
 40
3.0
 40
3.0
 40
4.0
 40
4.0
 40
4.0
 40
5.0
 40
5.0
 40
5.0
 40
6.0
 40
6.0
 40
6.0
 40
7.0
 40
7.0
 40
7.0
 40
8.0
 40
8.0
 40
8.0
 40
8.0
 10
5.876241888578331
 20
-3.063660193092194
 30
0.0
 10
5.876241888578331
 20
-3.089290015724929
 30
0.0
 10
5.897017612722644
 20
-3.110065739869242
 30
0.0
 10
5.922653142031246
 20
-3.110065739869242
 30
0.0
 10
5.922653142031246
 20
-3.110065739869242
 30
0.0
 10
6.077346857968753
 20
-3.110065739869242
 30
0.0
 10
6.077346857968753
 20
-3.110065739869242
 30
0.0
 10
6.102976680601538
 20
-3.110065739869242
 30
0.0
 10
6.123758111421668
 20
-3.089290015724929
 30
0.0
 10
6.123758111421668
 20
-3.063660193092194
 30
0.0
 10
6.123758111421668
 20
-3.063660193092194
 30
0.0
 10
6.123758111421668
 20
-3.063660193092194
 30
0.0
 10
6.123758111421668
 20
-3.063660193092194
 30
0.0
 10
6.123758111421668
 20
-3.0380189571077
 30
0.0
 10
6.102976680601538
 20
-3.017248939639204
 30
0.0
 10
6.077346857968753
 20
-3.017248939639204
 30
0.0
 10
6.077346857968753
 20
-3.017248939639204
 30
0.0
 10
5.922653142031246
 20
-3.017248939639204
 30
0.0
 10
5.922653142031246
 20
-3.017248939639204
 30
0.0
 10
5.897017612722644
 20
-3.017248939639204
 30
0.0
 10
5.876241888578331
 20
-3.0380189571077
 30
0.0
 10
5.876241888578331
 20
-3.063660193092194
 30
0.0
 10
5.876241888578331
 20
-3.063660193092194
 30
0.0
 10
5.876241888578331
 20
-3.063660193092194
 30
0.0
 10
5.876241888578331
 20
-3.063660193092194
 30
0.0
  0
ENDSEC
  0
SECTION
  2
OBJECTS
  0
DICTIONARY
  5
C
330
0
100
AcDbDictionary
281
     1
  3
ACAD_GROUP
350
D
  3
ACAD_LAYOUT
350
1A
  3
ACAD_MATERIAL
350
3B
  3
ACAD_MLEADERSTYLE
350
49
  3
ACAD_MLINESTYLE
350
17
  3
ACAD_PLOTSETTINGS
350
19
  3
ACAD_PLOTSTYLENAME
350
E
  3
ACAD_TABLESTYLE
350
48
  3
ACAD_VISUALSTYLE
350
2A
  0
SUN
  5
3F
330
29
100
AcDbSun
 90
        1
290
     0
 63
     7
421
 16777215
 40
1.0
291
     1
 91
  2455826
 92
 54000000
292
     0
 70
     2
 71
   256
280
     1
  0
DICTIONARY
  5
D
102
{ACAD_REACTORS
330
C
102
}
330
C
100
AcDbDictionary
281
     1
  0
DICTIONARY
  5
1A
102
{ACAD_REACTORS
330
C
102
}
330
C
100
AcDbDictionary
281
     1
  3
Layout1
350
1E
  3
Layout2
350
26
  3
Model
350
22
  0
DICTIONARY
  5
3B
102
{ACAD_REACTORS
330
C
102
}
330
C
100
AcDbDictionary
281
     1
  3
ByBlock
350
3D
  3
ByLayer
350
3C
  3
Global
350
3E
  0
DICTIONARY
  5
49
102
{ACAD_REACTORS
330
C
102
}
330
C
100
AcDbDictionary
281
     1
  0
DICTIONARY
  5
17
102
{ACAD_REACTORS
330
C
102
}
330
C
100
AcDbDictionary
281
     1
  3
Standard
350
18
  0
DICTIONARY
  5
19
102
{ACAD_REACTORS
330
C
102
}
330
C
100
AcDbDictionary
281
     1
  0
ACDBDICTIONARYWDFLT
  5
E
102
{ACAD_REACTORS
330
C
102
}
330
C
100
AcDbDictionary
281
     1
  3
Normal
350
F
100
AcDbDictionaryWithDefault
340
F
  0
DICTIONARY
  5
48
102
{ACAD_REACTORS
330
C
102
}
330
C
100
AcDbDictionary
281
     1
  0
DICTIONARY
  5
2A
102
{ACAD_REACTORS
330
C
102
}
330
C
100
AcDbDictionary
281
     1
  3
2dWireframe
350
2F
  3
3D Hidden
350
31
  3
3dWireframe
350
30
  3
Basic
350
32
  3
Brighten
350
36
  3
ColorChange
350
3A
  3
Conceptual
350
34
  3
Dim
350
35
  3
Facepattern
350
39
  3
Flat
350
2B
  3
FlatWithEdges
350
2C
  3
Gouraud
350
2D
  3
GouraudWithEdges
350
2E
  3
Linepattern
350
38
  3
Realistic
350
33
  3
Thicken
350
37
  0
LAYOUT
  5
1E
102
{ACAD_REACTORS
330
1A
102
}
330
1A
100
AcDbPlotSettings
  1

  2
none_device
  4

  6

 40
0.0
 41
0.0
 42
0.0
 43
0.0
 44
0.0
 45
0.0
 46
0.0
 47
0.0
 48
0.0
 49
0.0
140
0.0
141
0.0
142
1.0
143
1.0
 70
   688
 72
     0
 73
     0
 74
     5
  7

 75
    16
 76
     0
 77
     2
 78
   300
147
1.0
148
0.0
149
0.0
100
AcDbLayout
  1
Layout1
 70
     1
 71
     1
 10
0.0
 20
0.0
 11
12.0
 21
9.0
 12
0.0
 22
0.0
 32
0.0
 14
1.000000000000000E+20
 24
1.000000000000000E+20
 34
1.000000000000000E+20
 15
-1.000000000000000E+20
 25
-1.000000000000000E+20
 35
-1.000000000000000E+20
146
0.0
 13
0.0
 23
0.0
 33
0.0
 16
1.0
 26
0.0
 36
0.0
 17
0.0
 27
1.0
 37
0.0
 76
     0
330
1B
  0
LAYOUT
  5
26
102
{ACAD_REACTORS
330
1A
102
}
330
1A
100
AcDbPlotSettings
  1

  2
none_device
  4

  6

 40
0.0
 41
0.0
 42
0.0
 43
0.0
 44
0.0
 45
0.0
 46
0.0
 47
0.0
 48
0.0
 49
0.0
140
0.0
141
0.0
142
1.0
143
1.0
 70
   688
 72
     0
 73
     0
 74
     5
  7

 75
    16
 76
     0
 77
     2
 78
   300
147
1.0
148
0.0
149
0.0
100
AcDbLayout
  1
Layout2
 70
     1
 71
     2
 10
0.0
 20
0.0
 11
0.0
 21
0.0
 12
0.0
 22
0.0
 32
0.0
 14
0.0
 24
0.0
 34
0.0
 15
0.0
 25
0.0
 35
0.0
146
0.0
 13
0.0
 23
0.0
 33
0.0
 16
1.0
 26
0.0
 36
0.0
 17
0.0
 27
1.0
 37
0.0
 76
     0
330
23
  0
LAYOUT
  5
22
102
{ACAD_REACTORS
330
1A
102
}
330
1A
100
AcDbPlotSettings
  1

  2
none_device
  4

  6

 40
0.0
 41
0.0
 42
0.0
 43
0.0
 44
0.0
 45
0.0
 46
0.0
 47
0.0
 48
0.0
 49
0.0
140
0.0
141
0.0
142
1.0
143
1.0
 70
  1712
 72
     0
 73
     0
 74
     0
  7

 75
     0
 76
     0
 77
     2
 78
   300
147
1.0
148
0.0
149
0.0
100
AcDbLayout
  1
Model
 70
     1
 71
     0
 10
0.0
 20
0.0
 11
12.0
 21
9.0
 12
0.0
 22
0.0
 32
0.0
 14
1.000000000000000E+20
 24
1.000000000000000E+20
 34
1.000000000000000E+20
 15
-1.000000000000000E+20
 25
-1.000000000000000E+20
 35
-1.000000000000000E+20
146
0.0
 13
0.0
 23
0.0
 33
0.0
 16
1.0
 26
0.0
 36
0.0
 17
0.0
 27
1.0
 37
0.0
 76
     0
330
1F
331
29
  0
MATERIAL
  5
3D
102
{ACAD_REACTORS
330
3B
102
}
330
3B
100
AcDbMaterial
  1
ByBlock
 72
     1
 94
      127
  0
MATERIAL
  5
3C
102
{ACAD_REACTORS
330
3B
102
}
330
3B
100
AcDbMaterial
  1
ByLayer
 72
     1
 94
      127
  0
MATERIAL
  5
3E
102
{ACAD_REACTORS
330
3B
102
}
330
3B
100
AcDbMaterial
  1
Global
 72
     1
 94
      127
  0
MLINESTYLE
  5
18
102
{ACAD_REACTORS
330
17
102
}
330
17
100
AcDbMlineStyle
  2
Standard
 70
     0
  3

 62
   256
 51
90.0
 52
90.0
 71
     2
 49
0.5
 62
   256
  6
BYLAYER
 49
-0.5
 62
   256
  6
BYLAYER
  0
ACDBPLACEHOLDER
  5
F
102
{ACAD_REACTORS
330
E
102
}
330
E
  0
VISUALSTYLE
  5
2F
102
{ACAD_REACTORS
330
2A
102
}
330
2A
100
AcDbVisualStyle
  2
2dWireframe
 70
     4
177
     2
291
     0
 71
     0
176
     1
 72
     2
176
     1
 73
     0
176
     1
 90
        0
176
     1
 40
-0.6
176
     1
 41
-30.0
176
     1
 62
     5
 63
     7
421
 16777215
176
     1
 74
     1
176
     1
 91
        4
176
     1
 64
     7
176
     1
 65
   257
176
     1
 75
     1
176
     1
175
     1
176
     1
 42
1.0
176
     1
 92
        0
176
     1
 66
   257
176
     1
 43
1.0
176
     1
 76
     1
176
     1
 77
     6
176
     1
 78
     2
176
     1
 67
     7
176
     1
 79
     5
176
     1
170
     0
176
     1
171
     0
176
     1
290
     0
176
     1
 93
        1
176
     1
 44
0.0
176
     1
173
     0
176
     1
  0
VISUALSTYLE
  5
31
102
{ACAD_REACTORS
330
2A
102
}
330
2A
100
AcDbVisualStyle
  2
3D Hidden
 70
     6
177
     2
291
     0
 71
     1
176
     1
 72
     2
176
     1
 73
     2
176
     1
 90
        0
176
     1
 40
-0.6
176
     1
 41
-30.0
176
     1
 62
     5
 63
     7
421
 16777215
176
     1
 74
     2
176
     1
 91
        2
176
     1
 64
     7
176
     1
 65
   257
176
     1
 75
     2
176
     1
175
     1
176
     1
 42
40.0
176
     1
 92
        0
176
     1
 66
   257
176
     1
 43
1.0
176
     1
 76
     1
176
     1
 77
     6
176
     1
 78
     2
176
     1
 67
     7
176
     1
 79
     3
176
     1
170
     0
176
     1
171
     0
176
     1
290
     0
176
     1
 93
        1
176
     1
 44
0.0
176
     1
173
     0
176
     1
  0
VISUALSTYLE
  5
30
102
{ACAD_REACTORS
330
2A
102
}
330
2A
100
AcDbVisualStyle
  2
3dWireframe
 70
     5
177
     2
291
     0
 71
     0
176
     1
 72
     2
176
     1
 73
     0
176
     1
 90
        0
176
     1
 40
-0.6
176
     1
 41
-30.0
176
     1
 62
     5
 63
     7
421
 16777215
176
     1
 74
     1
176
     1
 91
        4
176
     1
 64
     7
176
     1
 65
   257
176
     1
 75
     1
176
     1
175
     1
176
     1
 42
1.0
176
     1
 92
        0
176
     1
 66
   257
176
     1
 43
1.0
176
     1
 76
     1
176
     1
 77
     6
176
     1
 78
     2
176
     1
 67
     7
176
     1
 79
     5
176
     1
170
     0
176
     1
171
     0
176
     1
290
     0
176
     1
 93
        1
176
     1
 44
0.0
176
     1
173
     0
176
     1
  0
VISUALSTYLE
  5
32
102
{ACAD_REACTORS
330
2A
102
}
330
2A
100
AcDbVisualStyle
  2
Basic
 70
     7
177
     2
291
     1
 71
     1
176
     1
 72
     0
176
     1
 73
     1
176
     1
 90
        0
176
     1
 40
-0.6
176
     1
 41
-30.0
176
     1
 62
     5
 63
     7
421
 16777215
176
     1
 74
     0
176
     1
 91
        4
176
     1
 64
     7
176
     1
 65
   257
176
     1
 75
     1
176
     1
175
     1
176
     1
 42
1.0
176
     1
 92
        8
176
     1
 66
     7
176
     1
 43
1.0
176
     1
 76
     1
176
     1
 77
     6
176
     1
 78
     2
176
     1
 67
     7
176
     1
 79
     5
176
     1
170
     0
176
     1
171
     0
176
     1
290
     0
176
     1
 93
        1
176
     1
 44
0.0
176
     1
173
     0
176
     1
  0
VISUALSTYLE
  5
36
102
{ACAD_REACTORS
330
2A
102
}
330
2A
100
AcDbVisualStyle
  2
Brighten
 70
    12
177
     2
291
     1
 71
     2
176
     1
 72
     2
176
     1
 73
     0
176
     1
 90
        0
176
     1
 40
-0.6
176
     1
 41
-30.0
176
     1
 62
     5
 63
     7
421
 16777215
176
     1
 74
     1
176
     1
 91
        4
176
     1
 64
     7
176
     1
 65
   257
176
     1
 75
     1
176
     1
175
     1
176
     1
 42
1.0
176
     1
 92
        8
176
     1
 66
     7
176
     1
 43
1.0
176
     1
 76
     1
176
     1
 77
     6
176
     1
 78
     2
176
     1
 67
     7
176
     1
 79
     5
176
     1
170
     0
176
     1
171
     0
176
     1
290
     0
176
     1
 93
        1
176
     1
 44
50.0
176
     1
173
     0
176
     1
  0
VISUALSTYLE
  5
3A
102
{ACAD_REACTORS
330
2A
102
}
330
2A
100
AcDbVisualStyle
  2
ColorChange
 70
    16
177
     2
291
     1
 71
     2
176
     1
 72
     2
176
     1
 73
     3
176
     1
 90
        0
176
     1
 40
-0.6
176
     1
 41
-30.0
176
     1
 62
     5
 63
     8
421
  8421504
176
     1
 74
     1
176
     1
 91
        4
176
     1
 64
     7
176
     1
 65
   257
176
     1
 75
     1
176
     1
175
     1
176
     1
 42
1.0
176
     1
 92
        8
176
     1
 66
     8
424
  8421504
176
     1
 43
1.0
176
     1
 76
     1
176
     1
 77
     6
176
     1
 78
     2
176
     1
 67
     7
176
     1
 79
     5
176
     1
170
     0
176
     1
171
     0
176
     1
290
     0
176
     1
 93
        1
176
     1
 44
0.0
176
     1
173
     0
176
     1
  0
VISUALSTYLE
  5
34
102
{ACAD_REACTORS
330
2A
102
}
330
2A
100
AcDbVisualStyle
  2
Conceptual
 70
     9
177
     2
291
     0
 71
     3
176
     1
 72
     2
176
     1
 73
     0
176
     1
 90
        0
176
     1
 40
-0.6
176
     1
 41
-30.0
176
     1
 62
     5
 63
     7
421
 16777215
176
     1
 74
     2
176
     1
 91
        2
176
     1
 64
     7
176
     1
 65
   257
176
     1
 75
     1
176
     1
175
     1
176
     1
 42
40.0
176
     1
 92
        8
176
     1
 66
     7
176
     1
 43
1.0
176
     1
 76
     1
176
     1
 77
     6
176
     1
 78
     2
176
     1
 67
     7
176
     1
 79
     3
176
     1
170
     0
176
     1
171
     0
176
     1
290
     0
176
     1
 93
        1
176
     1
 44
0.0
176
     1
173
     0
176
     1
  0
VISUALSTYLE
  5
35
102
{ACAD_REACTORS
330
2A
102
}
330
2A
100
AcDbVisualStyle
  2
Dim
 70
    11
177
     2
291
     1
 71
     2
176
     1
 72
     2
176
     1
 73
     0
176
     1
 90
        0
176
     1
 40
-0.6
176
     1
 41
-30.0
176
     1
 62
     5
 63
     7
421
 16777215
176
     1
 74
     1
176
     1
 91
        4
176
     1
 64
     7
176
     1
 65
   257
176
     1
 75
     1
176
     1
175
     1
176
     1
 42
1.0
176
     1
 92
        8
176
     1
 66
     7
176
     1
 43
1.0
176
     1
 76
     1
176
     1
 77
     6
176
     1
 78
     2
176
     1
 67
     7
176
     1
 79
     5
176
     1
170
     0
176
     1
171
     0
176
     1
290
     0
176
     1
 93
        1
176
     1
 44
-50.0
176
     1
173
     0
176
     1
  0
VISUALSTYLE
  5
39
102
{ACAD_REACTORS
330
2A
102
}
330
2A
100
AcDbVisualStyle
  2
Facepattern
 70
    15
177
     2
291
     1
 71
     2
176
     1
 72
     2
176
     1
 73
     0
176
     1
 90
        0
176
     1
 40
-0.6
176
     1
 41
-30.0
176
     1
 62
     5
 63
     7
421
 16777215
176
     1
 74
     1
176
     1
 91
        4
176
     1
 64
     7
176
     1
 65
   257
176
     1
 75
     1
176
     1
175
     1
176
     1
 42
1.0
176
     1
 92
        8
176
     1
 66
     7
176
     1
 43
1.0
176
     1
 76
     1
176
     1
 77
     6
176
     1
 78
     2
176
     1
 67
     7
176
     1
 79
     5
176
     1
170
     0
176
     1
171
     0
176
     1
290
     0
176
     1
 93
        1
176
     1
 44
0.0
176
     1
173
     0
176
     1
  0
VISUALSTYLE
  5
2B
102
{ACAD_REACTORS
330
2A
102
}
330
2A
100
AcDbVisualStyle
  2
Flat
 70
     0
177
     2
291
     1
 71
     2
176
     1
 72
     1
176
     1
 73
     1
176
     1
 90
        2
176
     1
 40
-0.6
176
     1
 41
30.0
176
     1
 62
     5
 63
     7
421
 16777215
176
     1
 74
     0
176
     1
 91
        4
176
     1
 64
     7
176
     1
 65
   257
176
     1
 75
     1
176
     1
175
     1
176
     1
 42
1.0
176
     1
 92
        8
176
     1
 66
     7
176
     1
 43
1.0
176
     1
 76
     1
176
     1
 77
     6
176
     1
 78
     2
176
     1
 67
     7
176
     1
 79
     5
176
     1
170
     0
176
     1
171
     0
176
     1
290
     0
176
     1
 93
       13
176
     1
 44
0.0
176
     1
173
     0
176
     1
  0
VISUALSTYLE
  5
2C
102
{ACAD_REACTORS
330
2A
102
}
330
2A
100
AcDbVisualStyle
  2
FlatWithEdges
 70
     1
177
     2
291
     1
 71
     2
176
     1
 72
     1
176
     1
 73
     1
176
     1
 90
        2
176
     1
 40
-0.6
176
     1
 41
30.0
176
     1
 62
     5
 63
     7
421
 16777215
176
     1
 74
     1
176
     1
 91
        4
176
     1
 64
     7
176
     1
 65
   257
176
     1
 75
     1
176
     1
175
     1
176
     1
 42
1.0
176
     1
 92
        0
176
     1
 66
   257
176
     1
 43
1.0
176
     1
 76
     1
176
     1
 77
     6
176
     1
 78
     2
176
     1
 67
     7
176
     1
 79
     5
176
     1
170
     0
176
     1
171
     0
176
     1
290
     0
176
     1
 93
       13
176
     1
 44
0.0
176
     1
173
     0
176
     1
  0
VISUALSTYLE
  5
2D
102
{ACAD_REACTORS
330
2A
102
}
330
2A
100
AcDbVisualStyle
  2
Gouraud
 70
     2
177
     2
291
     1
 71
     2
176
     1
 72
     2
176
     1
 73
     1
176
     1
 90
        2
176
     1
 40
-0.6
176
     1
 41
30.0
176
     1
 62
     5
 63
     7
421
 16777215
176
     1
 74
     0
176
     1
 91
        4
176
     1
 64
     7
176
     1
 65
   257
176
     1
 75
     1
176
     1
175
     1
176
     1
 42
1.0
176
     1
 92
        0
176
     1
 66
     7
176
     1
 43
1.0
176
     1
 76
     1
176
     1
 77
     6
176
     1
 78
     2
176
     1
 67
     7
176
     1
 79
     5
176
     1
170
     0
176
     1
171
     0
176
     1
290
     0
176
     1
 93
       13
176
     1
 44
0.0
176
     1
173
     0
176
     1
  0
VISUALSTYLE
  5
2E
102
{ACAD_REACTORS
330
2A
102
}
330
2A
100
AcDbVisualStyle
  2
GouraudWithEdges
 70
     3
177
     2
291
     1
 71
     2
176
     1
 72
     2
176
     1
 73
     1
176
     1
 90
        2
176
     1
 40
-0.6
176
     1
 41
30.0
176
     1
 62
     5
 63
     7
421
 16777215
176
     1
 74
     1
176
     1
 91
        4
176
     1
 64
     7
176
     1
 65
   257
176
     1
 75
     1
176
     1
175
     1
176
     1
 42
1.0
176
     1
 92
        0
176
     1
 66
   257
176
     1
 43
1.0
176
     1
 76
     1
176
     1
 77
     6
176
     1
 78
     2
176
     1
 67
     7
176
     1
 79
     5
176
     1
170
     0
176
     1
171
     0
176
     1
290
     0
176
     1
 93
       13
176
     1
 44
0.0
176
     1
173
     0
176
     1
  0
VISUALSTYLE
  5
38
102
{ACAD_REACTORS
330
2A
102
}
330
2A
100
AcDbVisualStyle
  2
Linepattern
 70
    14
177
     2
291
     1
 71
     2
176
     1
 72
     2
176
     1
 73
     0
176
     1
 90
        0
176
     1
 40
-0.6
176
     1
 41
-30.0
176
     1
 62
     5
 63
     7
421
 16777215
176
     1
 74
     1
176
     1
 91
        4
176
     1
 64
     7
176
     1
 65
   257
176
     1
 75
     7
176
     1
175
     7
176
     1
 42
1.0
176
     1
 92
        8
176
     1
 66
     7
176
     1
 43
1.0
176
     1
 76
     1
176
     1
 77
     6
176
     1
 78
     2
176
     1
 67
     7
176
     1
 79
     5
176
     1
170
     0
176
     1
171
     0
176
     1
290
     0
176
     1
 93
        1
176
     1
 44
0.0
176
     1
173
     0
176
     1
  0
VISUALSTYLE
  5
33
102
{ACAD_REACTORS
330
2A
102
}
330
2A
100
AcDbVisualStyle
  2
Realistic
 70
     8
177
     2
291
     0
 71
     2
176
     1
 72
     2
176
     1
 73
     0
176
     1
 90
        0
176
     1
 40
-0.6
176
     1
 41
-30.0
176
     1
 62
     5
 63
     7
421
 16777215
176
     1
 74
     1
176
     1
 91
        0
176
     1
 64
     7
176
     1
 65
   257
176
     1
 75
     1
176
     1
175
     1
176
     1
 42
1.0
176
     1
 92
        8
176
     1
 66
     8
424
  7895160
176
     1
 43
1.0
176
     1
 76
     1
176
     1
 77
     6
176
     1
 78
     2
176
     1
 67
     7
176
     1
 79
     5
176
     1
170
     0
176
     1
171
     0
176
     1
290
     0
176
     1
 93
       13
176
     1
 44
0.0
176
     1
173
     0
176
     1
  0
VISUALSTYLE
  5
37
102
{ACAD_REACTORS
330
2A
102
}
330
2A
100
AcDbVisualStyle
  2
Thicken
 70
    13
177
     2
291
     1
 71
     2
176
     1
 72
     2
176
     1
 73
     0
176
     1
 90
        0
176
     1
 40
-0.6
176
     1
 41
-30.0
176
     1
 62
     5
 63
     7
421
 16777215
176
     1
 74
     1
176
     1
 91
        4
176
     1
 64
     7
176
     1
 65
   257
176
     1
 75
     1
176
     1
175
     1
176
     1
 42
1.0
176
     1
 92
       12
176
     1
 66
     7
176
     1
 43
1.0
176
     1
 76
     1
176
     1
 77
     6
176
     1
 78
     2
176
     1
 67
     7
176
     1
 79
     5
176
     1
170
     0
176
     1
171
     0
176
     1
290
     0
176
     1
 93
        1
176
     1
 44
0.0
176
     1
173
     0
176
     1
  0
ENDSEC
  0
EOF
